<?xml version="1.0"?>
<svg width="250mm" height="200mm" viewBox="0 0 2500 1500"
     xmlns="http://www.w3.org/2000/svg"
     xmlns:xlink="http://www.w3.org/1999/xlink"
     xmlns:ev="http://www.w3.org/2001/xml-events">
<g font-family="Verdana" font-size="8">
  <text x="1" y="1">ERROR - COULD NOT COMPLETE DRAWING! Examine ERR file for possible explanation. Last error message is:   "Error: No node connection found after the following object: G SW APARTMENT ERV EXH FAN"</text>
  <rect x="200" y="20" width="1" height="1" style="fill:paleturquoise; stroke: black;"/>147
  <text x="202" y="14">G SW APARTMENT OA HEAT EXCHANGER</text>
  <rect x="200" y="20" width="1" height="1" style="fill:silver; stroke: black;"/>194
  <text x="202" y="14">G SW APARTMENT ERV EXH FAN</text>
  <line x1="201" y1="20" x2="200" y2="20" style="stroke:black;"/>
  <text x="200" y="61">Unused Non-Parent Objects:</text>
  <text x="220" y="81">G SW APARTMENT</text>
  <text x="220" y="101">G NW APARTMENT</text>
  <text x="220" y="121">OFFICE</text>
  <text x="220" y="141">G NE APARTMENT</text>
  <text x="220" y="161">G N1 APARTMENT</text>
  <text x="220" y="181">G N2 APARTMENT</text>
  <text x="220" y="201">G S1 APARTMENT</text>
  <text x="220" y="221">G S2 APARTMENT</text>
  <text x="220" y="241">M SW APARTMENT</text>
  <text x="220" y="261">M NW APARTMENT</text>
  <text x="220" y="281">M SE APARTMENT</text>
  <text x="220" y="301">M NE APARTMENT</text>
  <text x="220" y="321">M N1 APARTMENT</text>
  <text x="220" y="341">M N2 APARTMENT</text>
  <text x="220" y="361">M S1 APARTMENT</text>
  <text x="220" y="381">M S2 APARTMENT</text>
  <text x="220" y="401">T SW APARTMENT</text>
  <text x="220" y="421">T NW APARTMENT</text>
  <text x="220" y="441">T SE APARTMENT</text>
  <text x="220" y="461">T NE APARTMENT</text>
  <text x="220" y="481">T N1 APARTMENT</text>
  <text x="220" y="501">T N2 APARTMENT</text>
  <text x="220" y="521">T S1 APARTMENT</text>
  <text x="220" y="541">T S2 APARTMENT</text>
  <text x="220" y="561">SWHSYS1 WATER HEATER</text>
  <text x="220" y="581">OutdoorAir:NodeList</text>
  <text x="220" y="601">OutdoorAir:NodeList</text>
  <text x="220" y="621">OutdoorAir:NodeList</text>
  <text x="220" y="641">OutdoorAir:NodeList</text>
  <text x="220" y="661">OutdoorAir:NodeList</text>
  <text x="220" y="681">OutdoorAir:NodeList</text>
  <text x="220" y="701">OutdoorAir:NodeList</text>
  <text x="220" y="721">OutdoorAir:NodeList</text>
  <text x="220" y="741">OutdoorAir:NodeList</text>
  <text x="220" y="761">OutdoorAir:NodeList</text>
  <text x="220" y="781">OutdoorAir:NodeList</text>
  <text x="220" y="801">OutdoorAir:NodeList</text>
  <text x="220" y="821">OutdoorAir:NodeList</text>
  <text x="220" y="841">OutdoorAir:NodeList</text>
  <text x="220" y="861">OutdoorAir:NodeList</text>
  <text x="220" y="881">OutdoorAir:NodeList</text>
  <text x="220" y="901">OutdoorAir:NodeList</text>
  <text x="220" y="921">OutdoorAir:NodeList</text>
  <text x="220" y="941">OutdoorAir:NodeList</text>
  <text x="220" y="961">OutdoorAir:NodeList</text>
  <text x="220" y="981">OutdoorAir:NodeList</text>
  <text x="220" y="1001">OutdoorAir:NodeList</text>
  <text x="220" y="1021">OutdoorAir:NodeList</text>
  <text x="220" y="1041">OutdoorAir:NodeList</text>
  <text x="220" y="1061">OutdoorAir:Node</text>
  <text x="220" y="1081">OutdoorAir:Node</text>
  <text x="220" y="1101">OutdoorAir:Node</text>
  <text x="220" y="1121">OutdoorAir:Node</text>
  <text x="220" y="1141">OutdoorAir:Node</text>
  <text x="220" y="1161">OutdoorAir:Node</text>
  <text x="220" y="1181">OutdoorAir:Node</text>
  <text x="220" y="1201">OutdoorAir:Node</text>
  <text x="220" y="1221">OutdoorAir:Node</text>
  <text x="220" y="1241">OutdoorAir:Node</text>
  <text x="220" y="1261">OutdoorAir:Node</text>
  <text x="220" y="1281">OutdoorAir:Node</text>
  <text x="220" y="1301">OutdoorAir:Node</text>
  <text x="220" y="1321">OutdoorAir:Node</text>
  <text x="220" y="1341">OutdoorAir:Node</text>
  <text x="220" y="1361">OutdoorAir:Node</text>
  <text x="220" y="1381">OutdoorAir:Node</text>
  <text x="220" y="1401">OutdoorAir:Node</text>
  <text x="220" y="1421">OutdoorAir:Node</text>
  <text x="220" y="1441">OutdoorAir:Node</text>
  <text x="220" y="1461">OutdoorAir:Node</text>
  <text x="220" y="1481">OutdoorAir:Node</text>
  <text x="220" y="1501">OutdoorAir:Node</text>
  <text x="220" y="1521">OutdoorAir:Node</text>
  <text x="220" y="1541">OutdoorAir:Node</text>
  <text x="220" y="1561">SWHSYS1 LOOP SETPOINT MANAGER</text>
  <text x="220" y="1581">WATER LOOP SETPOINT MANAGER NEW</text>
  <text x="220" y="1601">WATER LOOP SETPOINT MANAGER NEW 2</text>
  <text x="220" y="1621">WATER LOOP SETPOINT MANAGER</text>
  <text x="220" y="1641">PLANT DEMAND INLET PIPE</text>
  <text x="220" y="1661">PLANT DEMAND SIDE BYPASS</text>
  <text x="220" y="1681">PLANT DEMAND OUTLET PIPE</text>
  <text x="220" y="1701">PLANT SUPPLY SIDE BYPASS</text>
  <text x="220" y="1721">PLANT SUPPLY OUTLET</text>
  <text x="220" y="1741">SWHSYS1 SUPPLY EQUIPMENT BYPASS PIPE</text>
  <text x="220" y="1761">SWHSYS1 SUPPLY OUTLET PIPE</text>
  <text x="220" y="1781">SWHSYS1 DEMAND INLET PIPE</text>
  <text x="220" y="1801">SWHSYS1 DEMAND BYPASS PIPE</text>
  <text x="220" y="1821">SWHSYS1 DEMAND OUTLET PIPE</text>
  <text x="220" y="1841">PLANT DEMAND SPLITTER</text>
  <text x="220" y="1861">PLANT DEMAND MIXER</text>
  <text x="220" y="1881">CENTRAL TOWER</text>
  <text x="220" y="1901">CENTRAL BOILER</text>
  <text x="220" y="1921">PLANT SUPPLY SPLITTER</text>
  <text x="220" y="1941">PLANT SUPPLY MIXER</text>
  <text x="220" y="1961">G SW APARTMENT SUB CAT</text>
  <text x="220" y="1981">G NW APARTMENT SUB CAT</text>
  <text x="220" y="2001">G NE APARTMENT SUB CAT</text>
  <text x="220" y="2021">G N1 APARTMENT SUB CAT</text>
  <text x="220" y="2041">G N2 APARTMENT SUB CAT</text>
  <text x="220" y="2061">G S1 APARTMENT SUB CAT</text>
  <text x="220" y="2081">G S2 APARTMENT SUB CAT</text>
  <text x="220" y="2101">M SW APARTMENT SUB CAT</text>
  <text x="220" y="2121">M NW APARTMENT SUB CAT</text>
  <text x="220" y="2141">M SE APARTMENT SUB CAT</text>
  <text x="220" y="2161">M NE APARTMENT SUB CAT</text>
  <text x="220" y="2181">M N1 APARTMENT SUB CAT</text>
  <text x="220" y="2201">M N2 APARTMENT SUB CAT</text>
  <text x="220" y="2221">M S1 APARTMENT SUB CAT</text>
  <text x="220" y="2241">M S2 APARTMENT SUB CAT</text>
  <text x="220" y="2261">T SW APARTMENT SUB CAT</text>
  <text x="220" y="2281">T NW APARTMENT SUB CAT</text>
  <text x="220" y="2301">T SE APARTMENT SUB CAT</text>
  <text x="220" y="2321">T NE APARTMENT SUB CAT</text>
  <text x="220" y="2341">T N1 APARTMENT SUB CAT</text>
  <text x="220" y="2361">T N2 APARTMENT SUB CAT</text>
  <text x="220" y="2381">T S1 APARTMENT SUB CAT</text>
  <text x="220" y="2401">T S2 APARTMENT SUB CAT</text>
  <text x="220" y="2421">SWHSYS1 DEMAND SPLITTER</text>
  <text x="220" y="2441">SWHSYS1 DEMAND MIXER</text>
  <text x="220" y="2461">SWHSYS1 SUPPLY SPLITTER</text>
  <text x="220" y="2481">SWHSYS1 SUPPLY MIXER</text>
  <text x="220" y="2501">AIRLOOP G SW SUPPLY AIR SPLITTER</text>
  <text x="220" y="2521">AIRLOOP G NW SUPPLY AIR SPLITTER</text>
  <text x="220" y="2541">AIRLOOP OFFICE SUPPLY AIR SPLITTER</text>
  <text x="220" y="2561">AIRLOOP G NE SUPPLY AIR SPLITTER</text>
  <text x="220" y="2581">AIRLOOP G N1 SUPPLY AIR SPLITTER</text>
  <text x="220" y="2601">AIRLOOP G N2 SUPPLY AIR SPLITTER</text>
  <text x="220" y="2621">AIRLOOP G S1 SUPPLY AIR SPLITTER</text>
  <text x="220" y="2641">AIRLOOP G S2 SUPPLY AIR SPLITTER</text>
  <text x="220" y="2661">AIRLOOP M SW SUPPLY AIR SPLITTER</text>
  <text x="220" y="2681">AIRLOOP M NW SUPPLY AIR SPLITTER</text>
  <text x="220" y="2701">AIRLOOP M SE SUPPLY AIR SPLITTER</text>
  <text x="220" y="2721">AIRLOOP M NE SUPPLY AIR SPLITTER</text>
  <text x="220" y="2741">AIRLOOP M N1 SUPPLY AIR SPLITTER</text>
  <text x="220" y="2761">AIRLOOP M N2 SUPPLY AIR SPLITTER</text>
  <text x="220" y="2781">AIRLOOP M S1 SUPPLY AIR SPLITTER</text>
  <text x="220" y="2801">AIRLOOP M S2 SUPPLY AIR SPLITTER</text>
  <text x="220" y="2821">AIRLOOP T SW SUPPLY AIR SPLITTER</text>
  <text x="220" y="2841">AIRLOOP T NW SUPPLY AIR SPLITTER</text>
  <text x="220" y="2861">AIRLOOP T SE SUPPLY AIR SPLITTER</text>
  <text x="220" y="2881">AIRLOOP T NE SUPPLY AIR SPLITTER</text>
  <text x="220" y="2901">AIRLOOP T N1 SUPPLY AIR SPLITTER</text>
  <text x="220" y="2921">AIRLOOP T N2 SUPPLY AIR SPLITTER</text>
  <text x="220" y="2941">AIRLOOP T S1 SUPPLY AIR SPLITTER</text>
  <text x="220" y="2961">AIRLOOP T S2 SUPPLY AIR SPLITTER</text>
  <text x="220" y="2981">G NW APARTMENT OA HEAT EXCHANGER</text>
  <text x="220" y="3001">G NW APARTMENT OA HEAT EXCHANGER</text>
  <text x="220" y="3021">G NE APARTMENT OA HEAT EXCHANGER</text>
  <text x="220" y="3041">G NE APARTMENT OA HEAT EXCHANGER</text>
  <text x="220" y="3061">G N1 APARTMENT OA HEAT EXCHANGER</text>
  <text x="220" y="3081">G N1 APARTMENT OA HEAT EXCHANGER</text>
  <text x="220" y="3101">G N2 APARTMENT OA HEAT EXCHANGER</text>
  <text x="220" y="3121">G N2 APARTMENT OA HEAT EXCHANGER</text>
  <text x="220" y="3141">G S1 APARTMENT OA HEAT EXCHANGER</text>
  <text x="220" y="3161">G S1 APARTMENT OA HEAT EXCHANGER</text>
  <text x="220" y="3181">G S2 APARTMENT OA HEAT EXCHANGER</text>
  <text x="220" y="3201">G S2 APARTMENT OA HEAT EXCHANGER</text>
  <text x="220" y="3221">M SW APARTMENT OA HEAT EXCHANGER</text>
  <text x="220" y="3241">M SW APARTMENT OA HEAT EXCHANGER</text>
  <text x="220" y="3261">M NW APARTMENT OA HEAT EXCHANGER</text>
  <text x="220" y="3281">M NW APARTMENT OA HEAT EXCHANGER</text>
  <text x="220" y="3301">M SE APARTMENT OA HEAT EXCHANGER</text>
  <text x="220" y="3321">M SE APARTMENT OA HEAT EXCHANGER</text>
  <text x="220" y="3341">M NE APARTMENT OA HEAT EXCHANGER</text>
  <text x="220" y="3361">M NE APARTMENT OA HEAT EXCHANGER</text>
  <text x="220" y="3381">M N1 APARTMENT OA HEAT EXCHANGER</text>
  <text x="220" y="3401">M N1 APARTMENT OA HEAT EXCHANGER</text>
  <text x="220" y="3421">M N2 APARTMENT OA HEAT EXCHANGER</text>
  <text x="220" y="3441">M N2 APARTMENT OA HEAT EXCHANGER</text>
  <text x="220" y="3461">M S1 APARTMENT OA HEAT EXCHANGER</text>
  <text x="220" y="3481">M S1 APARTMENT OA HEAT EXCHANGER</text>
  <text x="220" y="3501">M S2 APARTMENT OA HEAT EXCHANGER</text>
  <text x="220" y="3521">M S2 APARTMENT OA HEAT EXCHANGER</text>
  <text x="220" y="3541">T SW APARTMENT OA HEAT EXCHANGER</text>
  <text x="220" y="3561">T SW APARTMENT OA HEAT EXCHANGER</text>
  <text x="220" y="3581">T NW APARTMENT OA HEAT EXCHANGER</text>
  <text x="220" y="3601">T NW APARTMENT OA HEAT EXCHANGER</text>
  <text x="220" y="3621">T SE APARTMENT OA HEAT EXCHANGER</text>
  <text x="220" y="3641">T SE APARTMENT OA HEAT EXCHANGER</text>
  <text x="220" y="3661">T NE APARTMENT OA HEAT EXCHANGER</text>
  <text x="220" y="3681">T NE APARTMENT OA HEAT EXCHANGER</text>
  <text x="220" y="3701">T N1 APARTMENT OA HEAT EXCHANGER</text>
  <text x="220" y="3721">T N1 APARTMENT OA HEAT EXCHANGER</text>
  <text x="220" y="3741">T N2 APARTMENT OA HEAT EXCHANGER</text>
  <text x="220" y="3761">T N2 APARTMENT OA HEAT EXCHANGER</text>
  <text x="220" y="3781">T S1 APARTMENT OA HEAT EXCHANGER</text>
  <text x="220" y="3801">T S1 APARTMENT OA HEAT EXCHANGER</text>
  <text x="220" y="3821">T S2 APARTMENT OA HEAT EXCHANGER</text>
  <text x="220" y="3841">T S2 APARTMENT OA HEAT EXCHANGER</text>
  <text x="220" y="3861">AIRLOOP G SW SUPPLY FAN</text>
  <text x="220" y="3881">G SW APARTMENT ERV SUP FAN</text>
  <text x="220" y="3901">AIRLOOP G NW SUPPLY FAN</text>
  <text x="220" y="3921">G NW APARTMENT ERV SUP FAN</text>
  <text x="220" y="3941">G NW APARTMENT ERV EXH FAN</text>
  <text x="220" y="3961">AIRLOOP OFFICE SUPPLY FAN</text>
  <text x="220" y="3981">AIRLOOP G NE SUPPLY FAN</text>
  <text x="220" y="4001">G NE APARTMENT ERV SUP FAN</text>
  <text x="220" y="4021">G NE APARTMENT ERV EXH FAN</text>
  <text x="220" y="4041">AIRLOOP G N1 SUPPLY FAN</text>
  <text x="220" y="4061">G N1 APARTMENT ERV SUP FAN</text>
  <text x="220" y="4081">G N1 APARTMENT ERV EXH FAN</text>
  <text x="220" y="4101">AIRLOOP G N2 SUPPLY FAN</text>
  <text x="220" y="4121">G N2 APARTMENT ERV SUP FAN</text>
  <text x="220" y="4141">G N2 APARTMENT ERV EXH FAN</text>
  <text x="220" y="4161">AIRLOOP G S1 SUPPLY FAN</text>
  <text x="220" y="4181">G S1 APARTMENT ERV SUP FAN</text>
  <text x="220" y="4201">G S1 APARTMENT ERV EXH FAN</text>
  <text x="220" y="4221">AIRLOOP G S2 SUPPLY FAN</text>
  <text x="220" y="4241">G S2 APARTMENT ERV SUP FAN</text>
  <text x="220" y="4261">G S2 APARTMENT ERV EXH FAN</text>
  <text x="220" y="4281">AIRLOOP M SW SUPPLY FAN</text>
  <text x="220" y="4301">M SW APARTMENT ERV SUP FAN</text>
  <text x="220" y="4321">M SW APARTMENT ERV EXH FAN</text>
  <text x="220" y="4341">AIRLOOP M NW SUPPLY FAN</text>
  <text x="220" y="4361">M NW APARTMENT ERV SUP FAN</text>
  <text x="220" y="4381">M NW APARTMENT ERV EXH FAN</text>
  <text x="220" y="4401">AIRLOOP M SE SUPPLY FAN</text>
  <text x="220" y="4421">M SE APARTMENT ERV SUP FAN</text>
  <text x="220" y="4441">M SE APARTMENT ERV EXH FAN</text>
  <text x="220" y="4461">AIRLOOP M NE SUPPLY FAN</text>
  <text x="220" y="4481">M NE APARTMENT ERV SUP FAN</text>
  <text x="220" y="4501">M NE APARTMENT ERV EXH FAN</text>
  <text x="220" y="4521">AIRLOOP M N1 SUPPLY FAN</text>
  <text x="220" y="4541">M N1 APARTMENT ERV SUP FAN</text>
  <text x="220" y="4561">M N1 APARTMENT ERV EXH FAN</text>
  <text x="220" y="4581">AIRLOOP M N2 SUPPLY FAN</text>
  <text x="220" y="4601">M N2 APARTMENT ERV SUP FAN</text>
  <text x="220" y="4621">M N2 APARTMENT ERV EXH FAN</text>
  <text x="220" y="4641">AIRLOOP M S1 SUPPLY FAN</text>
  <text x="220" y="4661">M S1 APARTMENT ERV SUP FAN</text>
  <text x="220" y="4681">M S1 APARTMENT ERV EXH FAN</text>
  <text x="220" y="4701">AIRLOOP M S2 SUPPLY FAN</text>
  <text x="220" y="4721">M S2 APARTMENT ERV SUP FAN</text>
  <text x="220" y="4741">M S2 APARTMENT ERV EXH FAN</text>
  <text x="220" y="4761">AIRLOOP T SW SUPPLY FAN</text>
  <text x="220" y="4781">T SW APARTMENT ERV SUP FAN</text>
  <text x="220" y="4801">T SW APARTMENT ERV EXH FAN</text>
  <text x="220" y="4821">AIRLOOP T NW SUPPLY FAN</text>
  <text x="220" y="4841">T NW APARTMENT ERV SUP FAN</text>
  <text x="220" y="4861">T NW APARTMENT ERV EXH FAN</text>
  <text x="220" y="4881">AIRLOOP T SE SUPPLY FAN</text>
  <text x="220" y="4901">T SE APARTMENT ERV SUP FAN</text>
  <text x="220" y="4921">T SE APARTMENT ERV EXH FAN</text>
  <text x="220" y="4941">AIRLOOP T NE SUPPLY FAN</text>
  <text x="220" y="4961">T NE APARTMENT ERV SUP FAN</text>
  <text x="220" y="4981">T NE APARTMENT ERV EXH FAN</text>
  <text x="220" y="5001">AIRLOOP T N1 SUPPLY FAN</text>
  <text x="220" y="5021">T N1 APARTMENT ERV SUP FAN</text>
  <text x="220" y="5041">T N1 APARTMENT ERV EXH FAN</text>
  <text x="220" y="5061">AIRLOOP T N2 SUPPLY FAN</text>
  <text x="220" y="5081">T N2 APARTMENT ERV SUP FAN</text>
  <text x="220" y="5101">T N2 APARTMENT ERV EXH FAN</text>
  <text x="220" y="5121">AIRLOOP T S1 SUPPLY FAN</text>
  <text x="220" y="5141">T S1 APARTMENT ERV SUP FAN</text>
  <text x="220" y="5161">T S1 APARTMENT ERV EXH FAN</text>
  <text x="220" y="5181">AIRLOOP T S2 SUPPLY FAN</text>
  <text x="220" y="5201">T S2 APARTMENT ERV SUP FAN</text>
  <text x="220" y="5221">T S2 APARTMENT ERV EXH FAN</text>
  <text x="220" y="5241">G SW APARTMENT DIRECT AIR</text>
  <text x="220" y="5261">G NW APARTMENT DIRECT AIR</text>
  <text x="220" y="5281">OFFICE DIRECT AIR</text>
  <text x="220" y="5301">G NE APARTMENT DIRECT AIR</text>
  <text x="220" y="5321">G N1 APARTMENT DIRECT AIR</text>
  <text x="220" y="5341">G N2 APARTMENT DIRECT AIR</text>
  <text x="220" y="5361">G S1 APARTMENT DIRECT AIR</text>
  <text x="220" y="5381">G S2 APARTMENT DIRECT AIR</text>
  <text x="220" y="5401">M SW APARTMENT DIRECT AIR</text>
  <text x="220" y="5421">M NW APARTMENT DIRECT AIR</text>
  <text x="220" y="5441">M SE APARTMENT DIRECT AIR</text>
  <text x="220" y="5461">M NE APARTMENT DIRECT AIR</text>
  <text x="220" y="5481">M N1 APARTMENT DIRECT AIR</text>
  <text x="220" y="5501">M N2 APARTMENT DIRECT AIR</text>
  <text x="220" y="5521">M S1 APARTMENT DIRECT AIR</text>
  <text x="220" y="5541">M S2 APARTMENT DIRECT AIR</text>
  <text x="220" y="5561">T SW APARTMENT DIRECT AIR</text>
  <text x="220" y="5581">T NW APARTMENT DIRECT AIR</text>
  <text x="220" y="5601">T SE APARTMENT DIRECT AIR</text>
  <text x="220" y="5621">T NE APARTMENT DIRECT AIR</text>
  <text x="220" y="5641">T N1 APARTMENT DIRECT AIR</text>
  <text x="220" y="5661">T N2 APARTMENT DIRECT AIR</text>
  <text x="220" y="5681">T S1 APARTMENT DIRECT AIR</text>
  <text x="220" y="5701">T S2 APARTMENT DIRECT AIR</text>
  <text x="220" y="5721">AIRLOOP G SW RETURN AIR MIXER</text>
  <text x="220" y="5741">AIRLOOP G NW RETURN AIR MIXER</text>
  <text x="220" y="5761">AIRLOOP OFFICE RETURN AIR MIXER</text>
  <text x="220" y="5781">AIRLOOP G NE RETURN AIR MIXER</text>
  <text x="220" y="5801">AIRLOOP G N1 RETURN AIR MIXER</text>
  <text x="220" y="5821">AIRLOOP G N2 RETURN AIR MIXER</text>
  <text x="220" y="5841">AIRLOOP G S1 RETURN AIR MIXER</text>
  <text x="220" y="5861">AIRLOOP G S2 RETURN AIR MIXER</text>
  <text x="220" y="5881">AIRLOOP M SW RETURN AIR MIXER</text>
  <text x="220" y="5901">AIRLOOP M NW RETURN AIR MIXER</text>
  <text x="220" y="5921">AIRLOOP M SE RETURN AIR MIXER</text>
  <text x="220" y="5941">AIRLOOP M NE RETURN AIR MIXER</text>
  <text x="220" y="5961">AIRLOOP M N1 RETURN AIR MIXER</text>
  <text x="220" y="5981">AIRLOOP M N2 RETURN AIR MIXER</text>
  <text x="220" y="6001">AIRLOOP M S1 RETURN AIR MIXER</text>
  <text x="220" y="6021">AIRLOOP M S2 RETURN AIR MIXER</text>
  <text x="220" y="6041">AIRLOOP T SW RETURN AIR MIXER</text>
  <text x="220" y="6061">AIRLOOP T NW RETURN AIR MIXER</text>
  <text x="220" y="6081">AIRLOOP T SE RETURN AIR MIXER</text>
  <text x="220" y="6101">AIRLOOP T NE RETURN AIR MIXER</text>
  <text x="220" y="6121">AIRLOOP T N1 RETURN AIR MIXER</text>
  <text x="220" y="6141">AIRLOOP T N2 RETURN AIR MIXER</text>
  <text x="220" y="6161">AIRLOOP T S1 RETURN AIR MIXER</text>
  <text x="220" y="6181">AIRLOOP T S2 RETURN AIR MIXER</text>
  <text x="220" y="6201">AIRLOOP G SW_OAMIXING BOX</text>
  <text x="220" y="6221">AIRLOOP G NW_OAMIXING BOX</text>
  <text x="220" y="6241">AIRLOOP OFFICE_OAMIXING BOX</text>
  <text x="220" y="6261">AIRLOOP G NE_OAMIXING BOX</text>
  <text x="220" y="6281">AIRLOOP G N1_OAMIXING BOX</text>
  <text x="220" y="6301">AIRLOOP G N2_OAMIXING BOX</text>
  <text x="220" y="6321">AIRLOOP G S1_OAMIXING BOX</text>
  <text x="220" y="6341">AIRLOOP G S2_OAMIXING BOX</text>
  <text x="220" y="6361">AIRLOOP M SW_OAMIXING BOX</text>
  <text x="220" y="6381">AIRLOOP M NW_OAMIXING BOX</text>
  <text x="220" y="6401">AIRLOOP M SE_OAMIXING BOX</text>
  <text x="220" y="6421">AIRLOOP M NE_OAMIXING BOX</text>
  <text x="220" y="6441">AIRLOOP M N1_OAMIXING BOX</text>
  <text x="220" y="6461">AIRLOOP M N2_OAMIXING BOX</text>
  <text x="220" y="6481">AIRLOOP M S1_OAMIXING BOX</text>
  <text x="220" y="6501">AIRLOOP M S2_OAMIXING BOX</text>
  <text x="220" y="6521">AIRLOOP T SW_OAMIXING BOX</text>
  <text x="220" y="6541">AIRLOOP T NW_OAMIXING BOX</text>
  <text x="220" y="6561">AIRLOOP T SE_OAMIXING BOX</text>
  <text x="220" y="6581">AIRLOOP T NE_OAMIXING BOX</text>
  <text x="220" y="6601">AIRLOOP T N1_OAMIXING BOX</text>
  <text x="220" y="6621">AIRLOOP T N2_OAMIXING BOX</text>
  <text x="220" y="6641">AIRLOOP T S1_OAMIXING BOX</text>
  <text x="220" y="6661">AIRLOOP T S2_OAMIXING BOX</text>
  <text x="220" y="6681">AIRLOOP G SW_OA_CONTROLLER</text>
  <text x="220" y="6701">AIRLOOP G NW_OA_CONTROLLER</text>
  <text x="220" y="6721">AIRLOOP OFFICE_OA_CONTROLLER</text>
  <text x="220" y="6741">AIRLOOP G NE_OA_CONTROLLER</text>
  <text x="220" y="6761">AIRLOOP G N1_OA_CONTROLLER</text>
  <text x="220" y="6781">AIRLOOP G N2_OA_CONTROLLER</text>
  <text x="220" y="6801">AIRLOOP G S1_OA_CONTROLLER</text>
  <text x="220" y="6821">AIRLOOP G S2_OA_CONTROLLER</text>
  <text x="220" y="6841">AIRLOOP M SW_OA_CONTROLLER</text>
  <text x="220" y="6861">AIRLOOP M NW_OA_CONTROLLER</text>
  <text x="220" y="6881">AIRLOOP M SE_OA_CONTROLLER</text>
  <text x="220" y="6901">AIRLOOP M NE_OA_CONTROLLER</text>
  <text x="220" y="6921">AIRLOOP M N1_OA_CONTROLLER</text>
  <text x="220" y="6941">AIRLOOP M N2_OA_CONTROLLER</text>
  <text x="220" y="6961">AIRLOOP M S1_OA_CONTROLLER</text>
  <text x="220" y="6981">AIRLOOP M S2_OA_CONTROLLER</text>
  <text x="220" y="7001">AIRLOOP T SW_OA_CONTROLLER</text>
  <text x="220" y="7021">AIRLOOP T NW_OA_CONTROLLER</text>
  <text x="220" y="7041">AIRLOOP T SE_OA_CONTROLLER</text>
  <text x="220" y="7061">AIRLOOP T NE_OA_CONTROLLER</text>
  <text x="220" y="7081">AIRLOOP T N1_OA_CONTROLLER</text>
  <text x="220" y="7101">AIRLOOP T N2_OA_CONTROLLER</text>
  <text x="220" y="7121">AIRLOOP T S1_OA_CONTROLLER</text>
  <text x="220" y="7141">AIRLOOP T S2_OA_CONTROLLER</text>
  <text x="220" y="7161">AIRLOOP G SW COOLING COIL</text>
  <text x="220" y="7181">AIRLOOP G SW COOLING COIL</text>
  <text x="220" y="7201">AIRLOOP G NW COOLING COIL</text>
  <text x="220" y="7221">AIRLOOP G NW COOLING COIL</text>
  <text x="220" y="7241">AIRLOOP OFFICE COOLING COIL</text>
  <text x="220" y="7261">AIRLOOP OFFICE COOLING COIL</text>
  <text x="220" y="7281">AIRLOOP G NE COOLING COIL</text>
  <text x="220" y="7301">AIRLOOP G NE COOLING COIL</text>
  <text x="220" y="7321">AIRLOOP G N1 COOLING COIL</text>
  <text x="220" y="7341">AIRLOOP G N1 COOLING COIL</text>
  <text x="220" y="7361">AIRLOOP G N2 COOLING COIL</text>
  <text x="220" y="7381">AIRLOOP G N2 COOLING COIL</text>
  <text x="220" y="7401">AIRLOOP G S1 COOLING COIL</text>
  <text x="220" y="7421">AIRLOOP G S1 COOLING COIL</text>
  <text x="220" y="7441">AIRLOOP G S2 COOLING COIL</text>
  <text x="220" y="7461">AIRLOOP G S2 COOLING COIL</text>
  <text x="220" y="7481">AIRLOOP M SW COOLING COIL</text>
  <text x="220" y="7501">AIRLOOP M SW COOLING COIL</text>
  <text x="220" y="7521">AIRLOOP M NW COOLING COIL</text>
  <text x="220" y="7541">AIRLOOP M NW COOLING COIL</text>
  <text x="220" y="7561">AIRLOOP M SE COOLING COIL</text>
  <text x="220" y="7581">AIRLOOP M SE COOLING COIL</text>
  <text x="220" y="7601">AIRLOOP M NE COOLING COIL</text>
  <text x="220" y="7621">AIRLOOP M NE COOLING COIL</text>
  <text x="220" y="7641">AIRLOOP M N1 COOLING COIL</text>
  <text x="220" y="7661">AIRLOOP M N1 COOLING COIL</text>
  <text x="220" y="7681">AIRLOOP M N2 COOLING COIL</text>
  <text x="220" y="7701">AIRLOOP M N2 COOLING COIL</text>
  <text x="220" y="7721">AIRLOOP M S1 COOLING COIL</text>
  <text x="220" y="7741">AIRLOOP M S1 COOLING COIL</text>
  <text x="220" y="7761">AIRLOOP M S2 COOLING COIL</text>
  <text x="220" y="7781">AIRLOOP M S2 COOLING COIL</text>
  <text x="220" y="7801">AIRLOOP T SW COOLING COIL</text>
  <text x="220" y="7821">AIRLOOP T SW COOLING COIL</text>
  <text x="220" y="7841">AIRLOOP T NW COOLING COIL</text>
  <text x="220" y="7861">AIRLOOP T NW COOLING COIL</text>
  <text x="220" y="7881">AIRLOOP T SE COOLING COIL</text>
  <text x="220" y="7901">AIRLOOP T SE COOLING COIL</text>
  <text x="220" y="7921">AIRLOOP T NE COOLING COIL</text>
  <text x="220" y="7941">AIRLOOP T NE COOLING COIL</text>
  <text x="220" y="7961">AIRLOOP T N1 COOLING COIL</text>
  <text x="220" y="7981">AIRLOOP T N1 COOLING COIL</text>
  <text x="220" y="8001">AIRLOOP T N2 COOLING COIL</text>
  <text x="220" y="8021">AIRLOOP T N2 COOLING COIL</text>
  <text x="220" y="8041">AIRLOOP T S1 COOLING COIL</text>
  <text x="220" y="8061">AIRLOOP T S1 COOLING COIL</text>
  <text x="220" y="8081">AIRLOOP T S2 COOLING COIL</text>
  <text x="220" y="8101">AIRLOOP T S2 COOLING COIL</text>
  <text x="220" y="8121">AIRLOOP G SW HEATING COIL</text>
  <text x="220" y="8141">AIRLOOP G SW HEATING COIL</text>
  <text x="220" y="8161">AIRLOOP G NW HEATING COIL</text>
  <text x="220" y="8181">AIRLOOP G NW HEATING COIL</text>
  <text x="220" y="8201">AIRLOOP OFFICE HEATING COIL</text>
  <text x="220" y="8221">AIRLOOP OFFICE HEATING COIL</text>
  <text x="220" y="8241">AIRLOOP G NE HEATING COIL</text>
  <text x="220" y="8261">AIRLOOP G NE HEATING COIL</text>
  <text x="220" y="8281">AIRLOOP G N1 HEATING COIL</text>
  <text x="220" y="8301">AIRLOOP G N1 HEATING COIL</text>
  <text x="220" y="8321">AIRLOOP G N2 HEATING COIL</text>
  <text x="220" y="8341">AIRLOOP G N2 HEATING COIL</text>
  <text x="220" y="8361">AIRLOOP G S1 HEATING COIL</text>
  <text x="220" y="8381">AIRLOOP G S1 HEATING COIL</text>
  <text x="220" y="8401">AIRLOOP G S2 HEATING COIL</text>
  <text x="220" y="8421">AIRLOOP G S2 HEATING COIL</text>
  <text x="220" y="8441">AIRLOOP M SW HEATING COIL</text>
  <text x="220" y="8461">AIRLOOP M SW HEATING COIL</text>
  <text x="220" y="8481">AIRLOOP M NW HEATING COIL</text>
  <text x="220" y="8501">AIRLOOP M NW HEATING COIL</text>
  <text x="220" y="8521">AIRLOOP M SE HEATING COIL</text>
  <text x="220" y="8541">AIRLOOP M SE HEATING COIL</text>
  <text x="220" y="8561">AIRLOOP M NE HEATING COIL</text>
  <text x="220" y="8581">AIRLOOP M NE HEATING COIL</text>
  <text x="220" y="8601">AIRLOOP M N1 HEATING COIL</text>
  <text x="220" y="8621">AIRLOOP M N1 HEATING COIL</text>
  <text x="220" y="8641">AIRLOOP M N2 HEATING COIL</text>
  <text x="220" y="8661">AIRLOOP M N2 HEATING COIL</text>
  <text x="220" y="8681">AIRLOOP M S1 HEATING COIL</text>
  <text x="220" y="8701">AIRLOOP M S1 HEATING COIL</text>
  <text x="220" y="8721">AIRLOOP M S2 HEATING COIL</text>
  <text x="220" y="8741">AIRLOOP M S2 HEATING COIL</text>
  <text x="220" y="8761">AIRLOOP T SW HEATING COIL</text>
  <text x="220" y="8781">AIRLOOP T SW HEATING COIL</text>
  <text x="220" y="8801">AIRLOOP T NW HEATING COIL</text>
  <text x="220" y="8821">AIRLOOP T NW HEATING COIL</text>
  <text x="220" y="8841">AIRLOOP T SE HEATING COIL</text>
  <text x="220" y="8861">AIRLOOP T SE HEATING COIL</text>
  <text x="220" y="8881">AIRLOOP T NE HEATING COIL</text>
  <text x="220" y="8901">AIRLOOP T NE HEATING COIL</text>
  <text x="220" y="8921">AIRLOOP T N1 HEATING COIL</text>
  <text x="220" y="8941">AIRLOOP T N1 HEATING COIL</text>
  <text x="220" y="8961">AIRLOOP T N2 HEATING COIL</text>
  <text x="220" y="8981">AIRLOOP T N2 HEATING COIL</text>
  <text x="220" y="9001">AIRLOOP T S1 HEATING COIL</text>
  <text x="220" y="9021">AIRLOOP T S1 HEATING COIL</text>
  <text x="220" y="9041">AIRLOOP T S2 HEATING COIL</text>
  <text x="220" y="9061">AIRLOOP T S2 HEATING COIL</text>
  <text x="220" y="9081">AIRLOOP G SW_SUPPHEATCOIL</text>
  <text x="220" y="9101">AIRLOOP G NW_SUPPHEATCOIL</text>
  <text x="220" y="9121">AIRLOOP OFFICE_SUPPHEATCOIL</text>
  <text x="220" y="9141">AIRLOOP G NE_SUPPHEATCOIL</text>
  <text x="220" y="9161">AIRLOOP G N1_SUPPHEATCOIL</text>
  <text x="220" y="9181">AIRLOOP G N2_SUPPHEATCOIL</text>
  <text x="220" y="9201">AIRLOOP G S1_SUPPHEATCOIL</text>
  <text x="220" y="9221">AIRLOOP G S2_SUPPHEATCOIL</text>
  <text x="220" y="9241">AIRLOOP M SW_SUPPHEATCOIL</text>
  <text x="220" y="9261">AIRLOOP M NW_SUPPHEATCOIL</text>
  <text x="220" y="9281">AIRLOOP M SE_SUPPHEATCOIL</text>
  <text x="220" y="9301">AIRLOOP M NE_SUPPHEATCOIL</text>
  <text x="220" y="9321">AIRLOOP M N1_SUPPHEATCOIL</text>
  <text x="220" y="9341">AIRLOOP M N2_SUPPHEATCOIL</text>
  <text x="220" y="9361">AIRLOOP M S1_SUPPHEATCOIL</text>
  <text x="220" y="9381">AIRLOOP M S2_SUPPHEATCOIL</text>
  <text x="220" y="9401">AIRLOOP T SW_SUPPHEATCOIL</text>
  <text x="220" y="9421">AIRLOOP T NW_SUPPHEATCOIL</text>
  <text x="220" y="9441">AIRLOOP T SE_SUPPHEATCOIL</text>
  <text x="220" y="9461">AIRLOOP T NE_SUPPHEATCOIL</text>
  <text x="220" y="9481">AIRLOOP T N1_SUPPHEATCOIL</text>
  <text x="220" y="9501">AIRLOOP T N2_SUPPHEATCOIL</text>
  <text x="220" y="9521">AIRLOOP T S1_SUPPHEATCOIL</text>
  <text x="220" y="9541">AIRLOOP T S2_SUPPHEATCOIL</text>
  <text x="220" y="9561">AIRLOOP G SW DXAC HEAT PUMP</text>
  <text x="220" y="9581">AIRLOOP G NW DXAC HEAT PUMP</text>
  <text x="220" y="9601">AIRLOOP OFFICE DXAC HEAT PUMP</text>
  <text x="220" y="9621">AIRLOOP G NE DXAC HEAT PUMP</text>
  <text x="220" y="9641">AIRLOOP G N1 DXAC HEAT PUMP</text>
  <text x="220" y="9661">AIRLOOP G N2 DXAC HEAT PUMP</text>
  <text x="220" y="9681">AIRLOOP G S1 DXAC HEAT PUMP</text>
  <text x="220" y="9701">AIRLOOP G S2 DXAC HEAT PUMP</text>
  <text x="220" y="9721">AIRLOOP M SW DXAC HEAT PUMP</text>
  <text x="220" y="9741">AIRLOOP M NW DXAC HEAT PUMP</text>
  <text x="220" y="9761">AIRLOOP M SE DXAC HEAT PUMP</text>
  <text x="220" y="9781">AIRLOOP M NE DXAC HEAT PUMP</text>
  <text x="220" y="9801">AIRLOOP M N1 DXAC HEAT PUMP</text>
  <text x="220" y="9821">AIRLOOP M N2 DXAC HEAT PUMP</text>
  <text x="220" y="9841">AIRLOOP M S1 DXAC HEAT PUMP</text>
  <text x="220" y="9861">AIRLOOP M S2 DXAC HEAT PUMP</text>
  <text x="220" y="9881">AIRLOOP T SW DXAC HEAT PUMP</text>
  <text x="220" y="9901">AIRLOOP T NW DXAC HEAT PUMP</text>
  <text x="220" y="9921">AIRLOOP T SE DXAC HEAT PUMP</text>
  <text x="220" y="9941">AIRLOOP T NE DXAC HEAT PUMP</text>
  <text x="220" y="9961">AIRLOOP T N1 DXAC HEAT PUMP</text>
  <text x="220" y="9981">AIRLOOP T N2 DXAC HEAT PUMP</text>
  <text x="220" y="10001">AIRLOOP T S1 DXAC HEAT PUMP</text>
  <text x="220" y="10021">AIRLOOP T S2 DXAC HEAT PUMP</text>
  <text x="220" y="10041">PLANT CIRC PUMP</text>
  <text x="220" y="10061">SWHSYS1 PUMP</text>
  <text x="220" y="10081">G NW APARTMENT</text>
  <text x="220" y="10101">OFFICE</text>
  <text x="220" y="10121">G NE APARTMENT</text>
  <text x="220" y="10141">G N1 APARTMENT</text>
  <text x="220" y="10161">G N2 APARTMENT</text>
  <text x="220" y="10181">G S1 APARTMENT</text>
  <text x="220" y="10201">G S2 APARTMENT</text>
  <text x="220" y="10221">M SW APARTMENT</text>
  <text x="220" y="10241">M NW APARTMENT</text>
  <text x="220" y="10261">M SE APARTMENT</text>
  <text x="220" y="10281">M NE APARTMENT</text>
  <text x="220" y="10301">M N1 APARTMENT</text>
  <text x="220" y="10321">M N2 APARTMENT</text>
  <text x="220" y="10341">M S1 APARTMENT</text>
  <text x="220" y="10361">M S2 APARTMENT</text>
  <text x="220" y="10381">T SW APARTMENT</text>
  <text x="220" y="10401">T NW APARTMENT</text>
  <text x="220" y="10421">T SE APARTMENT</text>
  <text x="220" y="10441">T NE APARTMENT</text>
  <text x="220" y="10461">T N1 APARTMENT</text>
  <text x="220" y="10481">T N2 APARTMENT</text>
  <text x="220" y="10501">T S1 APARTMENT</text>
  <text x="220" y="10521">T S2 APARTMENT</text>
  <text x="200" y="10561">
The following are not supported: objects related to controls or ZoneHVAC:IdealLoadsAirSystem</text>
</g>
</svg>
