<?xml version="1.0"?>
<svg width="250mm" height="200mm" viewBox="0 0 2500 1500"
     xmlns="http://www.w3.org/2000/svg"
     xmlns:xlink="http://www.w3.org/1999/xlink"
     xmlns:ev="http://www.w3.org/2001/xml-events">
<g font-family="Verdana" font-size="8">
  <text x="1" y="1">ERROR - COULD NOT COMPLETE DRAWING! Examine ERR file for possible explanation. Last error message is:   "Error: No node connection found after the following object: TEST_OFFICE_0 TERMINAL WATER REHEAT COIL"</text>
  <rect x="200" y="20" width="1" height="1" style="fill:wheat; stroke: black;"/>27
  <text x="202" y="14">VAV SYSTEM ZONE SPLITTER</text>
  <rect x="200" y="20" width="1" height="1" style="fill:wheat; stroke: black;"/>28
  <text x="202" y="14">TEST_OFFICE_0 TERMINAL</text>
  <rect x="200" y="20" width="1" height="1" style="fill:salmon; stroke: black;"/>30
  <text x="202" y="14">AHU HEATING COIL</text>
  <rect x="200" y="20" width="1" height="1" style="fill:salmon; stroke: black;"/>32
  <text  x="202" y="9">TEST_OFFICE_0 TERMINAL WATER REHEAT
  <tspan x="202" y="17">COIL</tspan></text>
  <rect x="200" y="20" width="1" height="1" style="fill:skyblue; stroke: black;"/>34
  <text x="202" y="14">AHU COOLING COIL</text>
  <rect x="200" y="20" width="1" height="1" style="fill:lawngreen; stroke: black;"/>38
  <text  x="202" y="9">VAV SYSTEM OUTDOOR AIR SYSTEM
  <tspan x="202" y="17">OUTDOOR AIR MIXER</tspan></text>
  <rect x="200" y="20" width="1" height="1" style="fill:silver; stroke: black;"/>39
  <text x="202" y="14">FAN</text>
  <line x1="201" y1="20" x2="200" y2="20" style="stroke:black;"/>
  <line x1="201" y1="20" x2="200" y2="20" style="stroke:black;"/>
  <line x1="201" y1="20" x2="200" y2="20" style="stroke:black;"/>
  <line x1="201" y1="20" x2="200" y2="20" style="stroke:black;"/>
  <line x1="201" y1="20" x2="200" y2="20" style="stroke:black;"/>
  <line x1="201" y1="20" x2="200" y2="20" style="stroke:black;"/>
  <text x="200" y="61">Unused Non-Parent Objects:</text>
  <text x="220" y="81">TEST_OFFICE_0</text>
  <text x="220" y="101">OutdoorAir:NodeList</text>
  <text x="220" y="121">AHU SETPOINT MANAGER</text>
  <text x="220" y="141">CHILLED WATER TEMPERATURE</text>
  <text x="220" y="161">HOT WATER TEMPERATURE</text>
  <text x="220" y="181">VAV SYSTEM OUTDOOR AIR SYSTEM CONTROLLER MIXED_AIR SPM</text>
  <text x="220" y="201">AHU COOLING COIL_AIR_OUTLET SPM</text>
  <text x="220" y="221">FAN AIR INLET SPM</text>
  <text x="220" y="241">TEST CHILLED WATER LOOP SUPPLY OUTLET BRANCH PIPE</text>
  <text x="220" y="261">TEST CHILLED WATER LOOP DEMAND INLET BRANCH PIPE</text>
  <text x="220" y="281">TEST CHILLED WATER LOOP DEMAND OUTLET BRANCH PIPE</text>
  <text x="220" y="301">TEST HOT WATER LOOP SUPPLY OUTLET BRANCH PIPE</text>
  <text x="220" y="321">TEST HOT WATER LOOP DEMAND INLET BRANCH PIPE</text>
  <text x="220" y="341">TEST HOT WATER LOOP DEMAND OUTLET BRANCH PIPE</text>
  <text x="220" y="361">TEST CHILLED WATER LOOP DEMAND SPLITTER</text>
  <text x="220" y="381">TEST CHILLED WATER LOOP DEMAND MIXER</text>
  <text x="220" y="401">CHILLER 1</text>
  <text x="220" y="421">CHILLER 1</text>
  <text x="220" y="441">OutdoorAir:Node</text>
  <text x="220" y="461">TEST CHILLED WATER LOOP SUPPLY SPLITTER</text>
  <text x="220" y="481">TEST CHILLED WATER LOOP SUPPLY MIXER</text>
  <text x="220" y="501">TEST HOT WATER LOOP DEMAND SPLITTER</text>
  <text x="220" y="521">TEST HOT WATER LOOP DEMAND MIXER</text>
  <text x="220" y="541">DISTRICT HEATING</text>
  <text x="220" y="561">TEST HOT WATER LOOP SUPPLY SPLITTER</text>
  <text x="220" y="581">TEST HOT WATER LOOP SUPPLY MIXER</text>
  <text x="220" y="601">AHU COOLING COIL CONTROLLER</text>
  <text x="220" y="621">AHU HEATING COIL CONTROLLER</text>
  <text x="220" y="641">VAV SYSTEM ZONE MIXER</text>
  <text x="220" y="661">VAV SYSTEM OUTDOOR AIR SYSTEM CONTROLLER</text>
  <text x="220" y="681">CHW PUMP</text>
  <text x="220" y="701">HW PUMP</text>
  <text x="200" y="741">
The following are not supported: objects related to controls or ZoneHVAC:IdealLoadsAirSystem</text>
</g>
</svg>
