<?xml version="1.0"?>
<svg width="250mm" height="200mm" viewBox="0 0 3200 1500"
     xmlns="http://www.w3.org/2000/svg"
     xmlns:xlink="http://www.w3.org/1999/xlink"
     xmlns:ev="http://www.w3.org/2001/xml-events">
<g font-family="Verdana" font-size="8">
  <line x1="2050" y1="110" x2="1300" y2="30" style="stroke:silver;"/>
  <line x1="300" y1="910" x2="300" y2="990" style="stroke:silver;"/>
  <line x1="900" y1="190" x2="2050" y2="470" style="stroke:silver;"/>
  <line x1="2400" y1="710" x2="1800" y2="110" style="stroke:silver;"/>
  <line x1="2400" y1="750" x2="1050" y2="30" style="stroke:silver;"/>
  <line x1="2400" y1="670" x2="800" y2="110" style="stroke:silver;"/>
  <line x1="2400" y1="310" x2="800" y2="30" style="stroke:silver;"/>
  <line x1="2400" y1="230" x2="550" y2="110" style="stroke:silver;"/>
  <rect x="1950" y="100" width="200" height="20" style="fill:chartreuse; stroke: black;"/>1
  <text x="1952" y="113">TEST_OFFICE_0</text>
  <rect x="200" y="900" width="200" height="20" style="fill:snow; stroke: black;"/>2
  <text x="202" y="913">OutdoorAir:NodeList</text>
  <rect x="200" y="980" width="200" height="20" style="fill:snow; stroke: black;"/>3
  <text x="202" y="993">OutdoorAir:NodeList</text>
  <rect x="800" y="220" width="200" height="20" style="fill:wheat; stroke: black;"/>13
  <text x="802" y="233">PIPE ADIABATIC 6</text>
  <rect x="1400" y="220" width="200" height="20" style="fill:wheat; stroke: black;"/>14
  <text x="1402" y="233">PIPE ADIABATIC 7</text>
  <rect x="1700" y="220" width="200" height="20" style="fill:wheat; stroke: black;"/>15
  <text x="1702" y="233">PIPE ADIABATIC 9</text>
  <rect x="2300" y="260" width="200" height="20" style="fill:wheat; stroke: black;"/>16
  <text x="2302" y="273">PIPE ADIABATIC 8</text>
  <rect x="2300" y="340" width="200" height="20" style="fill:wheat; stroke: black;"/>17
  <text  x="2302" y="348">CHILLED WATER LOOP DEMAND BYPASS
  <tspan x="2302" y="356">PIPE</tspan></text>
  <rect x="2900" y="340" width="200" height="20" style="fill:wheat; stroke: black;"/>18
  <text x="2902" y="353">PIPE ADIABATIC 10</text>
  <rect x="700" y="460" width="200" height="20" style="fill:wheat; stroke: black;"/>19
  <text x="702" y="473">PIPE ADIABATIC 11</text>
  <rect x="1200" y="460" width="200" height="20" style="fill:wheat; stroke: black;"/>20
  <text x="1202" y="473">PIPE ADIABATIC 12</text>
  <rect x="1450" y="460" width="200" height="20" style="fill:wheat; stroke: black;"/>21
  <text x="1452" y="473">PIPE ADIABATIC 14</text>
  <rect x="1950" y="500" width="200" height="20" style="fill:wheat; stroke: black;"/>22
  <text x="1952" y="513">PIPE ADIABATIC 13</text>
  <rect x="1950" y="540" width="200" height="20" style="fill:wheat; stroke: black;"/>23
  <text  x="1952" y="548">CONDENSER WATER LOOP DEMAND BYPASS
  <tspan x="1952" y="556">PIPE</tspan></text>
  <rect x="2450" y="540" width="200" height="20" style="fill:wheat; stroke: black;"/>24
  <text x="2452" y="553">PIPE ADIABATIC 15</text>
  <rect x="800" y="620" width="200" height="20" style="fill:wheat; stroke: black;"/>25
  <text x="802" y="633">PIPE ADIABATIC 1</text>
  <rect x="1400" y="660" width="200" height="20" style="fill:wheat; stroke: black;"/>26
  <text x="1402" y="673">PIPE ADIABATIC 5</text>
  <rect x="1700" y="660" width="200" height="20" style="fill:wheat; stroke: black;"/>27
  <text x="1702" y="673">PIPE ADIABATIC 3</text>
  <rect x="2300" y="820" width="200" height="20" style="fill:wheat; stroke: black;"/>28
  <text x="2302" y="833">HOT WATER LOOP DEMAND BYPASS PIPE</text>
  <rect x="2900" y="820" width="200" height="20" style="fill:wheat; stroke: black;"/>29
  <text x="2902" y="833">PIPE ADIABATIC 4</text>
  <rect x="2000" y="220" width="200" height="20" style="fill:wheat; stroke: black;"/>30
  <text x="2002" y="233">CHILLED WATER LOOP DEMAND SPLITTER</text>
  <rect x="2600" y="340" width="200" height="20" style="fill:wheat; stroke: black;"/>31
  <text x="2602" y="353">CHILLED WATER LOOP DEMAND MIXER</text>
  <rect x="800" y="180" width="200" height="20" style="fill:powderblue; stroke: black;"/>32
  <text x="802" y="193">CHILLER ELECTRIC EIR 1</text>
  <rect x="1950" y="460" width="200" height="20" style="fill:powderblue; stroke: black;"/>33
  <text x="1952" y="473">CHILLER ELECTRIC EIR 1</text>
  <rect x="500" y="180" width="200" height="20" style="fill:wheat; stroke: black;"/>34
  <text x="502" y="193">CHILLED WATER LOOP SUPPLY SPLITTER</text>
  <rect x="1100" y="220" width="200" height="20" style="fill:wheat; stroke: black;"/>35
  <text x="1102" y="233">CHILLED WATER LOOP SUPPLY MIXER</text>
  <rect x="1700" y="460" width="200" height="20" style="fill:wheat; stroke: black;"/>36
  <text x="1702" y="473">CONDENSER WATER LOOP DEMAND SPLITTER</text>
  <rect x="2200" y="540" width="200" height="20" style="fill:wheat; stroke: black;"/>37
  <text x="2202" y="553">CONDENSER WATER LOOP DEMAND MIXER</text>
  <rect x="700" y="420" width="200" height="20" style="fill:pink; stroke: black;"/>38
  <text x="702" y="433">COOLING TOWER SINGLE SPEED 1</text>
  <rect x="450" y="420" width="200" height="20" style="fill:wheat; stroke: black;"/>39
  <text x="452" y="433">CONDENSER WATER LOOP SUPPLY SPLITTER</text>
  <rect x="950" y="460" width="200" height="20" style="fill:wheat; stroke: black;"/>40
  <text x="952" y="473">CONDENSER WATER LOOP SUPPLY MIXER</text>
  <rect x="2000" y="660" width="200" height="20" style="fill:wheat; stroke: black;"/>41
  <text x="2002" y="673">HOT WATER LOOP DEMAND SPLITTER</text>
  <rect x="2600" y="820" width="200" height="20" style="fill:wheat; stroke: black;"/>42
  <text x="2602" y="833">HOT WATER LOOP DEMAND MIXER</text>
  <rect x="800" y="660" width="200" height="20" style="fill:aliceblue; stroke: black;"/>43
  <text x="802" y="673">DISTRICT HEATING</text>
  <rect x="500" y="620" width="200" height="20" style="fill:wheat; stroke: black;"/>44
  <text x="502" y="633">HOT WATER LOOP SUPPLY SPLITTER</text>
  <rect x="1100" y="660" width="200" height="20" style="fill:wheat; stroke: black;"/>45
  <text x="1102" y="673">HOT WATER LOOP SUPPLY MIXER</text>
  <rect x="1200" y="100" width="200" height="20" style="fill:wheat; stroke: black;"/>46
  <text x="1202" y="113">AIR LOOP HVAC ZONE SPLITTER 1</text>
  <rect x="1450" y="100" width="200" height="20" style="fill:wheat; stroke: black;"/>47
  <text x="1452" y="113">VAV HW RHT</text>
  <rect x="2300" y="700" width="200" height="20" style="fill:salmon; stroke: black;"/>48
  <text x="2302" y="713">VAV HW RHT COIL</text>
  <rect x="1700" y="100" width="200" height="20" style="fill:salmon; stroke: black;"/>49
  <text x="1702" y="113">VAV HW RHT COIL</text>
  <rect x="2300" y="740" width="200" height="20" style="fill:salmon; stroke: black;"/>50
  <text  x="2302" y="748">FAN COIL WITH CONST FAN VAR FLUID
  <tspan x="2302" y="756">FLOW - HEATING COIL</tspan></text>
  <rect x="950" y="20" width="200" height="20" style="fill:salmon; stroke: black;"/>51
  <text  x="952" y="28">FAN COIL WITH CONST FAN VAR FLUID
  <tspan x="952" y="36">FLOW - HEATING COIL</tspan></text>
  <rect x="2300" y="660" width="200" height="20" style="fill:salmon; stroke: black;"/>52
  <text x="2302" y="673">COIL HEATING WATER 1</text>
  <rect x="700" y="100" width="200" height="20" style="fill:salmon; stroke: black;"/>53
  <text x="702" y="113">COIL HEATING WATER 1</text>
  <rect x="2300" y="300" width="200" height="20" style="fill:skyblue; stroke: black;"/>54
  <text  x="2302" y="308">FAN COIL WITH CONST FAN VAR FLUID
  <tspan x="2302" y="316">FLOW - COOLING COIL</tspan></text>
  <rect x="700" y="20" width="200" height="20" style="fill:skyblue; stroke: black;"/>55
  <text  x="702" y="28">FAN COIL WITH CONST FAN VAR FLUID
  <tspan x="702" y="36">FLOW - COOLING COIL</tspan></text>
  <rect x="2300" y="220" width="200" height="20" style="fill:skyblue; stroke: black;"/>56
  <text x="2302" y="233">COIL COOLING WATER 1</text>
  <rect x="450" y="100" width="200" height="20" style="fill:skyblue; stroke: black;"/>57
  <text x="452" y="113">COIL COOLING WATER 1</text>
  <rect x="200" y="20" width="200" height="20" style="fill:lawngreen; stroke: black;"/>60
  <text  x="202" y="28">FAN COIL WITH CONST FAN VAR FLUID
  <tspan x="202" y="36">FLOW OA MIXER</tspan></text>
  <rect x="200" y="100" width="200" height="20" style="fill:lawngreen; stroke: black;"/>61
  <text  x="202" y="108">AIR LOOP HVAC OUTDOOR AIR SYSTEM 1
  <tspan x="202" y="116">OUTDOOR AIR MIXER</tspan></text>
  <rect x="450" y="20" width="200" height="20" style="fill:silver; stroke: black;"/>62
  <text  x="452" y="28">FAN COIL WITH CONST FAN VAR FLUID
  <tspan x="452" y="36">FLOW - FAN</tspan></text>
  <rect x="950" y="100" width="200" height="20" style="fill:silver; stroke: black;"/>63
  <text x="952" y="113">FAN VARIABLE VOLUME 1</text>
  <rect x="2300" y="780" width="200" height="20" style="fill:salmon; stroke: black;"/>64
  <text x="2302" y="793">HW BASEBOARD</text>
  <rect x="2200" y="100" width="200" height="20" style="fill:wheat; stroke: black;"/>65
  <text x="2202" y="113">AIR LOOP HVAC ZONE MIXER 1</text>
  <rect x="200" y="180" width="200" height="20" style="fill:springgreen; stroke: black;"/>67
  <text x="202" y="193">PUMP VARIABLE SPEED 2</text>
  <rect x="200" y="420" width="200" height="20" style="fill:springgreen; stroke: black;"/>68
  <text x="202" y="433">PUMP VARIABLE SPEED 3</text>
  <rect x="200" y="620" width="200" height="20" style="fill:springgreen; stroke: black;"/>69
  <text x="202" y="633">PUMP VARIABLE SPEED 1</text>
  <rect x="1200" y="20" width="200" height="20" style="fill:chartreuse; stroke: black;"/>70
  <text x="1202" y="33">TEST_OFFICE_0</text>
  <line x1="1000" y1="230" x2="1100" y2="230" style="stroke:black;"/>
  <line x1="1600" y1="230" x2="1700" y2="230" style="stroke:black;"/>
  <line x1="1900" y1="230" x2="2000" y2="230" style="stroke:black;"/>
  <line x1="2500" y1="270" x2="2600" y2="350" style="stroke:black;"/>
  <line x1="2500" y1="350" x2="2600" y2="350" style="stroke:black;"/>
  <line x1="900" y1="470" x2="950" y2="470" style="stroke:black;"/>
  <line x1="1400" y1="470" x2="1450" y2="470" style="stroke:black;"/>
  <line x1="1650" y1="470" x2="1700" y2="470" style="stroke:black;"/>
  <line x1="2150" y1="510" x2="2200" y2="550" style="stroke:black;"/>
  <line x1="2150" y1="550" x2="2200" y2="550" style="stroke:black;"/>
  <line x1="1000" y1="630" x2="1100" y2="670" style="stroke:black;"/>
  <line x1="1600" y1="670" x2="1700" y2="670" style="stroke:black;"/>
  <line x1="1900" y1="670" x2="2000" y2="670" style="stroke:black;"/>
  <line x1="2500" y1="830" x2="2600" y2="830" style="stroke:black;"/>
  <line x1="2200" y1="230" x2="2300" y2="230" style="stroke:black;"/>
  <line x1="2200" y1="230" x2="2300" y2="270" style="stroke:black;"/>
  <line x1="2200" y1="230" x2="2300" y2="310" style="stroke:black;"/>
  <line x1="2200" y1="230" x2="2300" y2="350" style="stroke:black;"/>
  <line x1="2800" y1="350" x2="2900" y2="350" style="stroke:black;"/>
  <line x1="1000" y1="190" x2="1100" y2="230" style="stroke:black;"/>
  <line x1="2150" y1="470" x2="2200" y2="550" style="stroke:black;"/>
  <line x1="700" y1="190" x2="800" y2="190" style="stroke:black;"/>
  <line x1="700" y1="190" x2="800" y2="230" style="stroke:black;"/>
  <line x1="1300" y1="230" x2="1400" y2="230" style="stroke:black;"/>
  <line x1="1900" y1="470" x2="1950" y2="470" style="stroke:black;"/>
  <line x1="1900" y1="470" x2="1950" y2="510" style="stroke:black;"/>
  <line x1="1900" y1="470" x2="1950" y2="550" style="stroke:black;"/>
  <line x1="2400" y1="550" x2="2450" y2="550" style="stroke:black;"/>
  <line x1="900" y1="430" x2="950" y2="470" style="stroke:black;"/>
  <line x1="650" y1="430" x2="700" y2="430" style="stroke:black;"/>
  <line x1="650" y1="430" x2="700" y2="470" style="stroke:black;"/>
  <line x1="1150" y1="470" x2="1200" y2="470" style="stroke:black;"/>
  <line x1="2200" y1="670" x2="2300" y2="670" style="stroke:black;"/>
  <line x1="2200" y1="670" x2="2300" y2="710" style="stroke:black;"/>
  <line x1="2200" y1="670" x2="2300" y2="750" style="stroke:black;"/>
  <line x1="2200" y1="670" x2="2300" y2="790" style="stroke:black;"/>
  <line x1="2200" y1="670" x2="2300" y2="830" style="stroke:black;"/>
  <line x1="2800" y1="830" x2="2900" y2="830" style="stroke:black;"/>
  <line x1="1000" y1="670" x2="1100" y2="670" style="stroke:black;"/>
  <line x1="700" y1="630" x2="800" y2="630" style="stroke:black;"/>
  <line x1="700" y1="630" x2="800" y2="670" style="stroke:black;"/>
  <line x1="1300" y1="670" x2="1400" y2="670" style="stroke:black;"/>
  <line x1="1400" y1="110" x2="1450" y2="110" style="stroke:black;"/>
  <line x1="1650" y1="110" x2="1700" y2="110" style="stroke:black;"/>
  <line x1="2500" y1="710" x2="2600" y2="830" style="stroke:black;"/>
  <line x1="1900" y1="110" x2="1950" y2="110" style="stroke:black;"/>
  <line x1="2500" y1="750" x2="2600" y2="830" style="stroke:black;"/>
  <line x1="1150" y1="30" x2="1200" y2="30" style="stroke:black;"/>
  <line x1="2500" y1="670" x2="2600" y2="830" style="stroke:black;"/>
  <line x1="900" y1="110" x2="950" y2="110" style="stroke:black;"/>
  <line x1="2500" y1="310" x2="2600" y2="350" style="stroke:black;"/>
  <line x1="900" y1="30" x2="950" y2="30" style="stroke:black;"/>
  <line x1="2500" y1="230" x2="2600" y2="350" style="stroke:black;"/>
  <line x1="650" y1="110" x2="700" y2="110" style="stroke:black;"/>
  <line x1="400" y1="30" x2="450" y2="30" style="stroke:black;"/>
  <line x1="400" y1="110" x2="450" y2="110" style="stroke:black;"/>
  <line x1="650" y1="30" x2="700" y2="30" style="stroke:black;"/>
  <line x1="1150" y1="110" x2="1200" y2="110" style="stroke:black;"/>
  <line x1="2500" y1="790" x2="2600" y2="830" style="stroke:black;"/>
  <line x1="400" y1="190" x2="500" y2="190" style="stroke:black;"/>
  <line x1="400" y1="430" x2="450" y2="430" style="stroke:black;"/>
  <line x1="400" y1="630" x2="500" y2="630" style="stroke:black;"/>
  <line x1="2150" y1="110" x2="2200" y2="110" style="stroke:black;"/>
  <line x1="200" y1="30" x2="175" y2="30" style="stroke:black;"/>
  <line x1="175" y1="30" x2="175" y2="0" style="stroke:black;"/>
  <line x1="175" y1="0" x2="1425" y2="0" style="stroke:black;"/>
  <line x1="1425" y1="0" x2="1425" y2="30" style="stroke:black;"/>
  <line x1="1425" y1="30" x2="1400" y2="30" style="stroke:black;"/>
  <line x1="200" y1="110" x2="175" y2="110" style="stroke:black;"/>
  <line x1="175" y1="110" x2="175" y2="80" style="stroke:black;"/>
  <line x1="175" y1="80" x2="2425" y2="80" style="stroke:black;"/>
  <line x1="2425" y1="80" x2="2425" y2="110" style="stroke:black;"/>
  <line x1="2425" y1="110" x2="2400" y2="110" style="stroke:black;"/>
  <line x1="200" y1="190" x2="175" y2="190" style="stroke:black;"/>
  <line x1="175" y1="190" x2="175" y2="160" style="stroke:black;"/>
  <line x1="175" y1="160" x2="3125" y2="160" style="stroke:black;"/>
  <line x1="3125" y1="160" x2="3125" y2="350" style="stroke:black;"/>
  <line x1="3125" y1="350" x2="3100" y2="350" style="stroke:black;"/>
  <line x1="200" y1="430" x2="175" y2="430" style="stroke:black;"/>
  <line x1="175" y1="430" x2="175" y2="400" style="stroke:black;"/>
  <line x1="175" y1="400" x2="2675" y2="400" style="stroke:black;"/>
  <line x1="2675" y1="400" x2="2675" y2="550" style="stroke:black;"/>
  <line x1="2675" y1="550" x2="2650" y2="550" style="stroke:black;"/>
  <line x1="200" y1="630" x2="175" y2="630" style="stroke:black;"/>
  <line x1="175" y1="630" x2="175" y2="600" style="stroke:black;"/>
  <line x1="175" y1="600" x2="3125" y2="600" style="stroke:black;"/>
  <line x1="3125" y1="600" x2="3125" y2="830" style="stroke:black;"/>
  <line x1="3125" y1="830" x2="3100" y2="830" style="stroke:black;"/>
  <text x="200" y="1040">Unused Non-Parent Objects:</text>
  <text x="220" y="1060">OutdoorAir:Node</text>
  <text x="220" y="1080">HUMIDITY SPM</text>
  <text x="220" y="1100">SETPOINT MANAGER SCHEDULED 1</text>
  <text x="220" y="1120">SETPOINT MANAGER SCHEDULED 3</text>
  <text x="220" y="1140">SETPOINT MANAGER SCHEDULED 2</text>
  <text x="220" y="1160">NODE 9 OS DEFAULT SPM</text>
  <text x="220" y="1180">NODE 10 OS DEFAULT SPM</text>
  <text x="220" y="1200">NODE 11 OS DEFAULT SPM</text>
  <text x="220" y="1220">SETPOINT MANAGER FOLLOW OUTDOOR AIR TEMPERATURE 1</text>
  <text x="220" y="1240">CONTROLLER WATER COIL 2</text>
  <text x="220" y="1260">CONTROLLER WATER COIL 1</text>
  <text x="220" y="1280">CONTROLLER OUTDOOR AIR 1</text>
  <text x="200" y="1320">
The following are not supported: objects related to controls or ZoneHVAC:IdealLoadsAirSystem</text>
</g>
</svg>
