<?xml version="1.0"?>
<svg width="250mm" height="200mm" viewBox="0 0 2750 1500"
     xmlns="http://www.w3.org/2000/svg"
     xmlns:xlink="http://www.w3.org/1999/xlink"
     xmlns:ev="http://www.w3.org/2001/xml-events">
<g font-family="Verdana" font-size="8">
  <line x1="1800" y1="30" x2="1300" y2="110" style="stroke:silver;"/>
  <line x1="300" y1="510" x2="300" y2="590" style="stroke:silver;"/>
  <line x1="800" y1="190" x2="2050" y2="310" style="stroke:silver;"/>
  <line x1="2050" y1="390" x2="800" y2="30" style="stroke:silver;"/>
  <line x1="2050" y1="430" x2="1050" y2="110" style="stroke:silver;"/>
  <line x1="2050" y1="190" x2="550" y2="30" style="stroke:silver;"/>
  <line x1="2050" y1="230" x2="800" y2="110" style="stroke:silver;"/>
  <rect x="1700" y="20" width="200" height="20" style="fill:chartreuse; stroke: black;"/>1
  <text x="1702" y="33">TEST_OFFICE_0</text>
  <rect x="200" y="500" width="200" height="20" style="fill:snow; stroke: black;"/>2
  <text x="202" y="513">OutdoorAir:NodeList</text>
  <rect x="200" y="580" width="200" height="20" style="fill:snow; stroke: black;"/>3
  <text x="202" y="593">OutdoorAir:NodeList</text>
  <rect x="1200" y="180" width="200" height="20" style="fill:wheat; stroke: black;"/>13
  <text  x="1202" y="188">TEST CHILLED WATER LOOP SUPPLY
  <tspan x="1202" y="196">OUTLET BRANCH PIPE</tspan></text>
  <rect x="1450" y="180" width="200" height="20" style="fill:wheat; stroke: black;"/>14
  <text  x="1452" y="188">TEST CHILLED WATER LOOP DEMAND
  <tspan x="1452" y="196">INLET BRANCH PIPE</tspan></text>
  <rect x="2450" y="220" width="200" height="20" style="fill:wheat; stroke: black;"/>15
  <text  x="2452" y="228">TEST CHILLED WATER LOOP DEMAND
  <tspan x="2452" y="236">OUTLET BRANCH PIPE</tspan></text>
  <rect x="1200" y="300" width="200" height="20" style="fill:wheat; stroke: black;"/>16
  <text  x="1202" y="308">TEST CONDENSER WATER LOOP SUPPLY
  <tspan x="1202" y="316">OUTLET BRANCH PIPE</tspan></text>
  <rect x="1450" y="300" width="200" height="20" style="fill:wheat; stroke: black;"/>17
  <text  x="1452" y="308">TEST CONDENSER WATER LOOP DEMAND
  <tspan x="1452" y="316">INLET BRANCH PIPE</tspan></text>
  <rect x="2450" y="300" width="200" height="20" style="fill:wheat; stroke: black;"/>18
  <text  x="2452" y="308">TEST CONDENSER WATER LOOP DEMAND
  <tspan x="2452" y="316">OUTLET BRANCH PIPE</tspan></text>
  <rect x="1200" y="380" width="200" height="20" style="fill:wheat; stroke: black;"/>19
  <text  x="1202" y="388">TEST HOT WATER LOOP SUPPLY OUTLET
  <tspan x="1202" y="396">BRANCH PIPE</tspan></text>
  <rect x="1450" y="380" width="200" height="20" style="fill:wheat; stroke: black;"/>20
  <text  x="1452" y="388">TEST HOT WATER LOOP DEMAND INLET
  <tspan x="1452" y="396">BRANCH PIPE</tspan></text>
  <rect x="2450" y="420" width="200" height="20" style="fill:wheat; stroke: black;"/>21
  <text  x="2452" y="428">TEST HOT WATER LOOP DEMAND OUTLET
  <tspan x="2452" y="436">BRANCH PIPE</tspan></text>
  <rect x="1700" y="180" width="200" height="20" style="fill:wheat; stroke: black;"/>22
  <text  x="1702" y="188">TEST CHILLED WATER LOOP DEMAND
  <tspan x="1702" y="196">SPLITTER</tspan></text>
  <rect x="2200" y="220" width="200" height="20" style="fill:wheat; stroke: black;"/>23
  <text x="2202" y="233">TEST CHILLED WATER LOOP DEMAND MIXER</text>
  <rect x="700" y="180" width="200" height="20" style="fill:powderblue; stroke: black;"/>24
  <text x="702" y="193">CHILLER 1</text>
  <rect x="1950" y="300" width="200" height="20" style="fill:powderblue; stroke: black;"/>25
  <text x="1952" y="313">CHILLER 1</text>
  <rect x="450" y="180" width="200" height="20" style="fill:wheat; stroke: black;"/>26
  <text  x="452" y="188">TEST CHILLED WATER LOOP SUPPLY
  <tspan x="452" y="196">SPLITTER</tspan></text>
  <rect x="950" y="180" width="200" height="20" style="fill:wheat; stroke: black;"/>27
  <text x="952" y="193">TEST CHILLED WATER LOOP SUPPLY MIXER</text>
  <rect x="1700" y="300" width="200" height="20" style="fill:wheat; stroke: black;"/>28
  <text  x="1702" y="308">TEST CONDENSER WATER LOOP DEMAND
  <tspan x="1702" y="316">SPLITTER</tspan></text>
  <rect x="2200" y="300" width="200" height="20" style="fill:wheat; stroke: black;"/>29
  <text  x="2202" y="308">TEST CONDENSER WATER LOOP DEMAND
  <tspan x="2202" y="316">MIXER</tspan></text>
  <rect x="700" y="300" width="200" height="20" style="fill:pink; stroke: black;"/>30
  <text x="702" y="313">COOLING TOWER 1</text>
  <rect x="450" y="300" width="200" height="20" style="fill:wheat; stroke: black;"/>31
  <text  x="452" y="308">TEST CONDENSER WATER LOOP SUPPLY
  <tspan x="452" y="316">SPLITTER</tspan></text>
  <rect x="950" y="300" width="200" height="20" style="fill:wheat; stroke: black;"/>32
  <text  x="952" y="308">TEST CONDENSER WATER LOOP SUPPLY
  <tspan x="952" y="316">MIXER</tspan></text>
  <rect x="1700" y="380" width="200" height="20" style="fill:wheat; stroke: black;"/>33
  <text x="1702" y="393">TEST HOT WATER LOOP DEMAND SPLITTER</text>
  <rect x="2200" y="420" width="200" height="20" style="fill:wheat; stroke: black;"/>34
  <text x="2202" y="433">TEST HOT WATER LOOP DEMAND MIXER</text>
  <rect x="700" y="380" width="200" height="20" style="fill:aliceblue; stroke: black;"/>35
  <text x="702" y="393">DISTRICT HEATING</text>
  <rect x="450" y="380" width="200" height="20" style="fill:wheat; stroke: black;"/>36
  <text x="452" y="393">TEST HOT WATER LOOP SUPPLY SPLITTER</text>
  <rect x="950" y="380" width="200" height="20" style="fill:wheat; stroke: black;"/>37
  <text x="952" y="393">TEST HOT WATER LOOP SUPPLY MIXER</text>
  <rect x="1200" y="20" width="200" height="20" style="fill:wheat; stroke: black;"/>38
  <text x="1202" y="33">DOAS SYSTEM ZONE SPLITTER</text>
  <rect x="1450" y="20" width="200" height="20" style="fill:snow; stroke: black;"/>39
  <text x="1452" y="33">TEST_OFFICE_0 TERMINAL</text>
  <rect x="200" y="20" width="200" height="20" style="fill:lawngreen; stroke: black;"/>40
  <text  x="202" y="28">DOAS SYSTEM OUTDOOR AIR SYSTEM
  <tspan x="202" y="36">OUTDOOR AIR MIXER</tspan></text>
  <rect x="200" y="100" width="200" height="20" style="fill:lawngreen; stroke: black;"/>41
  <text  x="202" y="108">TEST_OFFICE_0 FOURPIPEFANCOIL OA
  <tspan x="202" y="116">MIXER</tspan></text>
  <rect x="1950" y="380" width="200" height="20" style="fill:salmon; stroke: black;"/>42
  <text x="1952" y="393">AHU HEATING COIL</text>
  <rect x="700" y="20" width="200" height="20" style="fill:salmon; stroke: black;"/>43
  <text x="702" y="33">AHU HEATING COIL</text>
  <rect x="1950" y="420" width="200" height="20" style="fill:salmon; stroke: black;"/>44
  <text  x="1952" y="428">TEST_OFFICE_0 FOURPIPEFANCOIL
  <tspan x="1952" y="436">HEATING COIL</tspan></text>
  <rect x="950" y="100" width="200" height="20" style="fill:salmon; stroke: black;"/>45
  <text  x="952" y="108">TEST_OFFICE_0 FOURPIPEFANCOIL
  <tspan x="952" y="116">HEATING COIL</tspan></text>
  <rect x="1950" y="180" width="200" height="20" style="fill:skyblue; stroke: black;"/>46
  <text x="1952" y="193">AHU COOLING COIL</text>
  <rect x="450" y="20" width="200" height="20" style="fill:skyblue; stroke: black;"/>47
  <text x="452" y="33">AHU COOLING COIL</text>
  <rect x="1950" y="220" width="200" height="20" style="fill:skyblue; stroke: black;"/>48
  <text  x="1952" y="228">TEST_OFFICE_0 FOURPIPEFANCOIL
  <tspan x="1952" y="236">COOLING COIL</tspan></text>
  <rect x="700" y="100" width="200" height="20" style="fill:skyblue; stroke: black;"/>49
  <text  x="702" y="108">TEST_OFFICE_0 FOURPIPEFANCOIL
  <tspan x="702" y="116">COOLING COIL</tspan></text>
  <rect x="450" y="100" width="200" height="20" style="fill:silver; stroke: black;"/>50
  <text  x="452" y="108">TEST_OFFICE_0 FOURPIPEFANCOIL CONST
  <tspan x="452" y="116">SPEED FAN</tspan></text>
  <rect x="950" y="20" width="200" height="20" style="fill:silver; stroke: black;"/>51
  <text x="952" y="33">FAN</text>
  <rect x="1950" y="20" width="200" height="20" style="fill:wheat; stroke: black;"/>54
  <text x="1952" y="33">DOAS SYSTEM ZONE MIXER</text>
  <rect x="450" y="500" width="200" height="20" style="fill:paleturquoise; stroke: black;"/>56
  <text  x="452" y="508">DOAS SYSTEM OUTDOOR AIR SYSTEM HEAT
  <tspan x="452" y="516">EXCHANGER</tspan></text>
  <rect x="200" y="180" width="200" height="20" style="fill:springgreen; stroke: black;"/>58
  <text x="202" y="193">CHW PUMP</text>
  <rect x="200" y="300" width="200" height="20" style="fill:springgreen; stroke: black;"/>59
  <text x="202" y="313">CW PUMP</text>
  <rect x="200" y="380" width="200" height="20" style="fill:springgreen; stroke: black;"/>60
  <text x="202" y="393">HW PUMP</text>
  <rect x="1200" y="100" width="200" height="20" style="fill:chartreuse; stroke: black;"/>61
  <text x="1202" y="113">TEST_OFFICE_0</text>
  <line x1="400" y1="510" x2="450" y2="510" style="stroke:black;"/>
  <line x1="1400" y1="190" x2="1450" y2="190" style="stroke:black;"/>
  <line x1="1650" y1="190" x2="1700" y2="190" style="stroke:black;"/>
  <line x1="1400" y1="310" x2="1450" y2="310" style="stroke:black;"/>
  <line x1="1650" y1="310" x2="1700" y2="310" style="stroke:black;"/>
  <line x1="1400" y1="390" x2="1450" y2="390" style="stroke:black;"/>
  <line x1="1650" y1="390" x2="1700" y2="390" style="stroke:black;"/>
  <line x1="1900" y1="190" x2="1950" y2="190" style="stroke:black;"/>
  <line x1="1900" y1="190" x2="1950" y2="230" style="stroke:black;"/>
  <line x1="2400" y1="230" x2="2450" y2="230" style="stroke:black;"/>
  <line x1="900" y1="190" x2="950" y2="190" style="stroke:black;"/>
  <line x1="2150" y1="310" x2="2200" y2="310" style="stroke:black;"/>
  <line x1="650" y1="190" x2="700" y2="190" style="stroke:black;"/>
  <line x1="1150" y1="190" x2="1200" y2="190" style="stroke:black;"/>
  <line x1="1900" y1="310" x2="1950" y2="310" style="stroke:black;"/>
  <line x1="2400" y1="310" x2="2450" y2="310" style="stroke:black;"/>
  <line x1="900" y1="310" x2="950" y2="310" style="stroke:black;"/>
  <line x1="650" y1="310" x2="700" y2="310" style="stroke:black;"/>
  <line x1="1150" y1="310" x2="1200" y2="310" style="stroke:black;"/>
  <line x1="1900" y1="390" x2="1950" y2="390" style="stroke:black;"/>
  <line x1="1900" y1="390" x2="1950" y2="430" style="stroke:black;"/>
  <line x1="2400" y1="430" x2="2450" y2="430" style="stroke:black;"/>
  <line x1="900" y1="390" x2="950" y2="390" style="stroke:black;"/>
  <line x1="650" y1="390" x2="700" y2="390" style="stroke:black;"/>
  <line x1="1150" y1="390" x2="1200" y2="390" style="stroke:black;"/>
  <line x1="1400" y1="30" x2="1450" y2="30" style="stroke:black;"/>
  <line x1="1650" y1="30" x2="1700" y2="30" style="stroke:black;"/>
  <line x1="400" y1="30" x2="450" y2="30" style="stroke:black;"/>
  <line x1="400" y1="110" x2="450" y2="110" style="stroke:black;"/>
  <line x1="2150" y1="390" x2="2200" y2="430" style="stroke:black;"/>
  <line x1="900" y1="30" x2="950" y2="30" style="stroke:black;"/>
  <line x1="2150" y1="430" x2="2200" y2="430" style="stroke:black;"/>
  <line x1="1150" y1="110" x2="1200" y2="110" style="stroke:black;"/>
  <line x1="2150" y1="190" x2="2200" y2="230" style="stroke:black;"/>
  <line x1="650" y1="30" x2="700" y2="30" style="stroke:black;"/>
  <line x1="2150" y1="230" x2="2200" y2="230" style="stroke:black;"/>
  <line x1="900" y1="110" x2="950" y2="110" style="stroke:black;"/>
  <line x1="650" y1="110" x2="700" y2="110" style="stroke:black;"/>
  <line x1="1150" y1="30" x2="1200" y2="30" style="stroke:black;"/>
  <line x1="650" y1="510" x2="200" y2="30" style="stroke:black;"/>
  <line x1="400" y1="190" x2="450" y2="190" style="stroke:black;"/>
  <line x1="400" y1="310" x2="450" y2="310" style="stroke:black;"/>
  <line x1="400" y1="390" x2="450" y2="390" style="stroke:black;"/>
  <line x1="1900" y1="30" x2="1950" y2="30" style="stroke:black;"/>
  <line x1="200" y1="30" x2="175" y2="30" style="stroke:black;"/>
  <line x1="175" y1="30" x2="175" y2="0" style="stroke:black;"/>
  <line x1="175" y1="0" x2="2175" y2="0" style="stroke:black;"/>
  <line x1="2175" y1="0" x2="2175" y2="30" style="stroke:black;"/>
  <line x1="2175" y1="30" x2="2150" y2="30" style="stroke:black;"/>
  <line x1="200" y1="110" x2="175" y2="110" style="stroke:black;"/>
  <line x1="175" y1="110" x2="175" y2="80" style="stroke:black;"/>
  <line x1="175" y1="80" x2="1425" y2="80" style="stroke:black;"/>
  <line x1="1425" y1="80" x2="1425" y2="110" style="stroke:black;"/>
  <line x1="1425" y1="110" x2="1400" y2="110" style="stroke:black;"/>
  <line x1="200" y1="190" x2="175" y2="190" style="stroke:black;"/>
  <line x1="175" y1="190" x2="175" y2="160" style="stroke:black;"/>
  <line x1="175" y1="160" x2="2675" y2="160" style="stroke:black;"/>
  <line x1="2675" y1="160" x2="2675" y2="230" style="stroke:black;"/>
  <line x1="2675" y1="230" x2="2650" y2="230" style="stroke:black;"/>
  <line x1="200" y1="310" x2="175" y2="310" style="stroke:black;"/>
  <line x1="175" y1="310" x2="175" y2="280" style="stroke:black;"/>
  <line x1="175" y1="280" x2="2675" y2="280" style="stroke:black;"/>
  <line x1="2675" y1="280" x2="2675" y2="310" style="stroke:black;"/>
  <line x1="2675" y1="310" x2="2650" y2="310" style="stroke:black;"/>
  <line x1="200" y1="390" x2="175" y2="390" style="stroke:black;"/>
  <line x1="175" y1="390" x2="175" y2="360" style="stroke:black;"/>
  <line x1="175" y1="360" x2="2675" y2="360" style="stroke:black;"/>
  <line x1="2675" y1="360" x2="2675" y2="430" style="stroke:black;"/>
  <line x1="2675" y1="430" x2="2650" y2="430" style="stroke:black;"/>
  <text x="200" y="640">Unused Non-Parent Objects:</text>
  <text x="220" y="660">AHU SETPOINT MANAGER</text>
  <text x="220" y="680">DOAS SYSTEM HUMIDITY SPM</text>
  <text x="220" y="700">CHILLED WATER TEMP</text>
  <text x="220" y="720">HOT WATER TEMPERATURE</text>
  <text x="220" y="740">DOAS SYSTEM OUTDOOR AIR SYSTEM HEAT EXCHANGER_SUPPLY_AIR_OUTLET SPM</text>
  <text x="220" y="760">DOAS SYSTEM OUTDOOR AIR SYSTEM CONTROLLER MIXED_AIR SPM</text>
  <text x="220" y="780">AHU COOLING COIL_AIR_OUTLET SPM</text>
  <text x="220" y="800">FAN AIR INLET SPM</text>
  <text x="220" y="820">CONDENSER WATER TEMPERATURE</text>
  <text x="220" y="840">AHU COOLING COIL CONTROLLER</text>
  <text x="220" y="860">AHU HEATING COIL CONTROLLER</text>
  <text x="220" y="880">DOAS SYSTEM OUTDOOR AIR SYSTEM CONTROLLER</text>
  <text x="200" y="920">
The following are not supported: objects related to controls or ZoneHVAC:IdealLoadsAirSystem</text>
</g>
</svg>
