<?xml version="1.0"?>
<svg width="250mm" height="200mm" viewBox="0 0 2500 1500"
     xmlns="http://www.w3.org/2000/svg"
     xmlns:xlink="http://www.w3.org/1999/xlink"
     xmlns:ev="http://www.w3.org/2001/xml-events">
<g font-family="Verdana" font-size="8">
  <rect x="1200" y="20" width="200" height="20" style="fill:chartreuse; stroke: black;"/>1
  <text x="1202" y="33">TEST_OFFICE_0</text>
  <rect x="200" y="100" width="200" height="20" style="fill:snow; stroke: black;"/>2
  <text x="202" y="113">OutdoorAir:NodeList</text>
  <rect x="450" y="20" width="200" height="20" style="fill:silver; stroke: black;"/>3
  <text x="452" y="33">TEST_OFFICE_0 VRF TERMINAL FAN ONOFF</text>
  <rect x="200" y="20" width="200" height="20" style="fill:lawngreen; stroke: black;"/>4
  <text x="202" y="33">TEST_OFFICE_0 VRF TERMINAL OA MIXER</text>
  <rect x="700" y="20" width="200" height="20" style="fill:aliceblue; stroke: black;"/>5
  <text  x="702" y="28">TEST_OFFICE_0 VRF TERMINAL COOLING
  <tspan x="702" y="36">COIL</tspan></text>
  <rect x="950" y="20" width="200" height="20" style="fill:aliceblue; stroke: black;"/>6
  <text  x="952" y="28">TEST_OFFICE_0 VRF TERMINAL HEATING
  <tspan x="952" y="36">COIL</tspan></text>
  <line x1="650" y1="30" x2="700" y2="30" style="stroke:black;"/>
  <line x1="400" y1="30" x2="450" y2="30" style="stroke:black;"/>
  <line x1="900" y1="30" x2="950" y2="30" style="stroke:black;"/>
  <line x1="1150" y1="30" x2="1200" y2="30" style="stroke:black;"/>
  <line x1="200" y1="30" x2="175" y2="30" style="stroke:black;"/>
  <line x1="175" y1="30" x2="175" y2="0" style="stroke:black;"/>
  <line x1="175" y1="0" x2="1425" y2="0" style="stroke:black;"/>
  <line x1="1425" y1="0" x2="1425" y2="30" style="stroke:black;"/>
  <line x1="1425" y1="30" x2="1400" y2="30" style="stroke:black;"/>
  <text x="200" y="160">Unused Non-Parent Objects:</text>
  <text x="200" y="200">
The following are not supported: objects related to controls or ZoneHVAC:IdealLoadsAirSystem</text>
</g>
</svg>
