<?xml version="1.0"?>
<svg width="250mm" height="200mm" viewBox="0 0 2750 1500"
     xmlns="http://www.w3.org/2000/svg"
     xmlns:xlink="http://www.w3.org/1999/xlink"
     xmlns:ev="http://www.w3.org/2001/xml-events">
<g font-family="Verdana" font-size="8">
  <line x1="2050" y1="190" x2="800" y2="30" style="stroke:silver;"/>
  <line x1="2050" y1="110" x2="550" y2="30" style="stroke:silver;"/>
  <rect x="1700" y="20" width="200" height="20" style="fill:chartreuse; stroke: black;"/>1
  <text x="1702" y="33">TEST_OFFICE_0</text>
  <rect x="200" y="260" width="200" height="20" style="fill:snow; stroke: black;"/>2
  <text x="202" y="273">OutdoorAir:NodeList</text>
  <rect x="1200" y="100" width="200" height="20" style="fill:wheat; stroke: black;"/>9
  <text  x="1202" y="108">TEST CHILLED WATER LOOP SUPPLY
  <tspan x="1202" y="116">OUTLET BRANCH PIPE</tspan></text>
  <rect x="1450" y="100" width="200" height="20" style="fill:wheat; stroke: black;"/>10
  <text  x="1452" y="108">TEST CHILLED WATER LOOP DEMAND
  <tspan x="1452" y="116">INLET BRANCH PIPE</tspan></text>
  <rect x="2450" y="100" width="200" height="20" style="fill:wheat; stroke: black;"/>11
  <text  x="2452" y="108">TEST CHILLED WATER LOOP DEMAND
  <tspan x="2452" y="116">OUTLET BRANCH PIPE</tspan></text>
  <rect x="1200" y="180" width="200" height="20" style="fill:wheat; stroke: black;"/>12
  <text  x="1202" y="188">TEST HOT WATER LOOP SUPPLY OUTLET
  <tspan x="1202" y="196">BRANCH PIPE</tspan></text>
  <rect x="1450" y="180" width="200" height="20" style="fill:wheat; stroke: black;"/>13
  <text  x="1452" y="188">TEST HOT WATER LOOP DEMAND INLET
  <tspan x="1452" y="196">BRANCH PIPE</tspan></text>
  <rect x="2450" y="180" width="200" height="20" style="fill:wheat; stroke: black;"/>14
  <text  x="2452" y="188">TEST HOT WATER LOOP DEMAND OUTLET
  <tspan x="2452" y="196">BRANCH PIPE</tspan></text>
  <rect x="1700" y="100" width="200" height="20" style="fill:wheat; stroke: black;"/>15
  <text  x="1702" y="108">TEST CHILLED WATER LOOP DEMAND
  <tspan x="1702" y="116">SPLITTER</tspan></text>
  <rect x="2200" y="100" width="200" height="20" style="fill:wheat; stroke: black;"/>16
  <text x="2202" y="113">TEST CHILLED WATER LOOP DEMAND MIXER</text>
  <rect x="700" y="100" width="200" height="20" style="fill:powderblue; stroke: black;"/>17
  <text x="702" y="113">CHILLER 1</text>
  <rect x="450" y="100" width="200" height="20" style="fill:wheat; stroke: black;"/>20
  <text  x="452" y="108">TEST CHILLED WATER LOOP SUPPLY
  <tspan x="452" y="116">SPLITTER</tspan></text>
  <rect x="950" y="100" width="200" height="20" style="fill:wheat; stroke: black;"/>21
  <text x="952" y="113">TEST CHILLED WATER LOOP SUPPLY MIXER</text>
  <rect x="1700" y="180" width="200" height="20" style="fill:wheat; stroke: black;"/>22
  <text x="1702" y="193">TEST HOT WATER LOOP DEMAND SPLITTER</text>
  <rect x="2200" y="180" width="200" height="20" style="fill:wheat; stroke: black;"/>23
  <text x="2202" y="193">TEST HOT WATER LOOP DEMAND MIXER</text>
  <rect x="700" y="180" width="200" height="20" style="fill:aliceblue; stroke: black;"/>24
  <text x="702" y="193">DISTRICT HEATING</text>
  <rect x="450" y="180" width="200" height="20" style="fill:wheat; stroke: black;"/>25
  <text x="452" y="193">TEST HOT WATER LOOP SUPPLY SPLITTER</text>
  <rect x="950" y="180" width="200" height="20" style="fill:wheat; stroke: black;"/>26
  <text x="952" y="193">TEST HOT WATER LOOP SUPPLY MIXER</text>
  <rect x="1200" y="20" width="200" height="20" style="fill:wheat; stroke: black;"/>27
  <text x="1202" y="33">VAV SYSTEM ZONE SPLITTER</text>
  <rect x="1450" y="20" width="200" height="20" style="fill:snow; stroke: black;"/>28
  <text x="1452" y="33">TEST_OFFICE_0 TERMINAL</text>
  <rect x="1950" y="20" width="200" height="20" style="fill:wheat; stroke: black;"/>29
  <text x="1952" y="33">VAV SYSTEM ZONE MIXER</text>
  <rect x="200" y="20" width="200" height="20" style="fill:lawngreen; stroke: black;"/>30
  <text  x="202" y="28">VAV SYSTEM OUTDOOR AIR SYSTEM
  <tspan x="202" y="36">OUTDOOR AIR MIXER</tspan></text>
  <rect x="1950" y="180" width="200" height="20" style="fill:salmon; stroke: black;"/>31
  <text x="1952" y="193">AHU HEATING COIL</text>
  <rect x="700" y="20" width="200" height="20" style="fill:salmon; stroke: black;"/>32
  <text x="702" y="33">AHU HEATING COIL</text>
  <rect x="1950" y="100" width="200" height="20" style="fill:skyblue; stroke: black;"/>33
  <text x="1952" y="113">AHU COOLING COIL</text>
  <rect x="450" y="20" width="200" height="20" style="fill:skyblue; stroke: black;"/>34
  <text x="452" y="33">AHU COOLING COIL</text>
  <rect x="950" y="20" width="200" height="20" style="fill:silver; stroke: black;"/>37
  <text x="952" y="33">FAN</text>
  <rect x="200" y="100" width="200" height="20" style="fill:springgreen; stroke: black;"/>39
  <text x="202" y="113">CHW PUMP</text>
  <rect x="200" y="180" width="200" height="20" style="fill:springgreen; stroke: black;"/>40
  <text x="202" y="193">HW PUMP</text>
  <line x1="1400" y1="110" x2="1450" y2="110" style="stroke:black;"/>
  <line x1="1650" y1="110" x2="1700" y2="110" style="stroke:black;"/>
  <line x1="1400" y1="190" x2="1450" y2="190" style="stroke:black;"/>
  <line x1="1650" y1="190" x2="1700" y2="190" style="stroke:black;"/>
  <line x1="1900" y1="110" x2="1950" y2="110" style="stroke:black;"/>
  <line x1="2400" y1="110" x2="2450" y2="110" style="stroke:black;"/>
  <line x1="900" y1="110" x2="950" y2="110" style="stroke:black;"/>
  <line x1="650" y1="110" x2="700" y2="110" style="stroke:black;"/>
  <line x1="1150" y1="110" x2="1200" y2="110" style="stroke:black;"/>
  <line x1="1900" y1="190" x2="1950" y2="190" style="stroke:black;"/>
  <line x1="2400" y1="190" x2="2450" y2="190" style="stroke:black;"/>
  <line x1="900" y1="190" x2="950" y2="190" style="stroke:black;"/>
  <line x1="650" y1="190" x2="700" y2="190" style="stroke:black;"/>
  <line x1="1150" y1="190" x2="1200" y2="190" style="stroke:black;"/>
  <line x1="1400" y1="30" x2="1450" y2="30" style="stroke:black;"/>
  <line x1="1650" y1="30" x2="1700" y2="30" style="stroke:black;"/>
  <line x1="400" y1="30" x2="450" y2="30" style="stroke:black;"/>
  <line x1="2150" y1="190" x2="2200" y2="190" style="stroke:black;"/>
  <line x1="900" y1="30" x2="950" y2="30" style="stroke:black;"/>
  <line x1="2150" y1="110" x2="2200" y2="110" style="stroke:black;"/>
  <line x1="650" y1="30" x2="700" y2="30" style="stroke:black;"/>
  <line x1="1150" y1="30" x2="1200" y2="30" style="stroke:black;"/>
  <line x1="400" y1="110" x2="450" y2="110" style="stroke:black;"/>
  <line x1="400" y1="190" x2="450" y2="190" style="stroke:black;"/>
  <line x1="1900" y1="30" x2="1950" y2="30" style="stroke:black;"/>
  <line x1="200" y1="30" x2="175" y2="30" style="stroke:black;"/>
  <line x1="175" y1="30" x2="175" y2="0" style="stroke:black;"/>
  <line x1="175" y1="0" x2="2175" y2="0" style="stroke:black;"/>
  <line x1="2175" y1="0" x2="2175" y2="30" style="stroke:black;"/>
  <line x1="2175" y1="30" x2="2150" y2="30" style="stroke:black;"/>
  <line x1="200" y1="110" x2="175" y2="110" style="stroke:black;"/>
  <line x1="175" y1="110" x2="175" y2="80" style="stroke:black;"/>
  <line x1="175" y1="80" x2="2675" y2="80" style="stroke:black;"/>
  <line x1="2675" y1="80" x2="2675" y2="110" style="stroke:black;"/>
  <line x1="2675" y1="110" x2="2650" y2="110" style="stroke:black;"/>
  <line x1="200" y1="190" x2="175" y2="190" style="stroke:black;"/>
  <line x1="175" y1="190" x2="175" y2="160" style="stroke:black;"/>
  <line x1="175" y1="160" x2="2675" y2="160" style="stroke:black;"/>
  <line x1="2675" y1="160" x2="2675" y2="190" style="stroke:black;"/>
  <line x1="2675" y1="190" x2="2650" y2="190" style="stroke:black;"/>
  <text x="200" y="320">Unused Non-Parent Objects:</text>
  <text x="220" y="340">AHU SETPOINT MANAGER</text>
  <text x="220" y="360">CHILLED WATER TEMPERATURE</text>
  <text x="220" y="380">HOT WATER TEMPERATURE</text>
  <text x="220" y="400">VAV SYSTEM OUTDOOR AIR SYSTEM CONTROLLER MIXED_AIR SPM</text>
  <text x="220" y="420">AHU COOLING COIL_AIR_OUTLET SPM</text>
  <text x="220" y="440">FAN AIR INLET SPM</text>
  <text x="220" y="460">OutdoorAir:Node</text>
  <text x="220" y="480">AHU COOLING COIL CONTROLLER</text>
  <text x="220" y="500">AHU HEATING COIL CONTROLLER</text>
  <text x="220" y="520">VAV SYSTEM OUTDOOR AIR SYSTEM CONTROLLER</text>
  <text x="200" y="560">
The following are not supported: objects related to controls or ZoneHVAC:IdealLoadsAirSystem</text>
</g>
</svg>
