<?xml version="1.0"?>
<svg width="250mm" height="200mm" viewBox="0 0 5000 1500"
     xmlns="http://www.w3.org/2000/svg"
     xmlns:xlink="http://www.w3.org/1999/xlink"
     xmlns:ev="http://www.w3.org/2001/xml-events">
<g font-family="Verdana" font-size="8">
  <text x="1" y="1">ERROR - COULD NOT COMPLETE DRAWING! Examine ERR file for possible explanation. Last error message is:   "Error: OrganizeSubDiagram stopped from runaway condition."</text>
  <line x1="1050" y1="110" x2="2550" y2="350" style="stroke:silver;"/>
  <line x1="2300" y1="590" x2="4050" y2="510" style="stroke:silver;"/>
  <line x1="2800" y1="150" x2="3800" y2="510" style="stroke:silver;"/>
  <rect x="1950" y="500" width="200" height="20" style="fill:chartreuse; stroke: black;"/>1
  <text x="1952" y="513">TEST_OFFICE_0</text>
  <rect x="200" y="700" width="200" height="20" style="fill:snow; stroke: black;"/>2
  <text x="202" y="713">OutdoorAir:NodeList</text>
  <rect x="950" y="140" width="200" height="20" style="fill:wheat; stroke: black;"/>11
  <text x="952" y="153">PIPE ADIABATIC 6</text>
  <rect x="1700" y="140" width="200" height="20" style="fill:wheat; stroke: black;"/>12
  <text x="1702" y="153">PIPE ADIABATIC 7</text>
  <rect x="1950" y="140" width="200" height="20" style="fill:wheat; stroke: black;"/>13
  <text x="1952" y="153">PIPE ADIABATIC 9</text>
  <rect x="2700" y="180" width="200" height="20" style="fill:wheat; stroke: black;"/>14
  <text x="2702" y="193">PIPE ADIABATIC 8</text>
  <rect x="2700" y="220" width="200" height="20" style="fill:wheat; stroke: black;"/>15
  <text  x="2702" y="228">CHILLED WATER LOOP DEMAND BYPASS
  <tspan x="2702" y="236">PIPE</tspan></text>
  <rect x="3450" y="220" width="200" height="20" style="fill:wheat; stroke: black;"/>16
  <text x="3452" y="233">PIPE ADIABATIC 10</text>
  <rect x="700" y="340" width="200" height="20" style="fill:wheat; stroke: black;"/>17
  <text x="702" y="353">PIPE ADIABATIC 11</text>
  <rect x="1700" y="340" width="200" height="20" style="fill:wheat; stroke: black;"/>18
  <text x="1702" y="353">PIPE ADIABATIC 12</text>
  <rect x="1950" y="340" width="200" height="20" style="fill:wheat; stroke: black;"/>19
  <text x="1952" y="353">PIPE ADIABATIC 14</text>
  <rect x="2450" y="380" width="200" height="20" style="fill:wheat; stroke: black;"/>20
  <text x="2452" y="393">PIPE ADIABATIC 13</text>
  <rect x="2450" y="420" width="200" height="20" style="fill:wheat; stroke: black;"/>21
  <text  x="2452" y="428">CONDENSER WATER LOOP DEMAND BYPASS
  <tspan x="2452" y="436">PIPE</tspan></text>
  <rect x="3200" y="420" width="200" height="20" style="fill:wheat; stroke: black;"/>22
  <text x="3202" y="433">PIPE ADIABATIC 15</text>
  <rect x="700" y="540" width="200" height="20" style="fill:wheat; stroke: black;"/>23
  <text x="702" y="553">PIPE ADIABATIC 1</text>
  <rect x="1450" y="540" width="200" height="20" style="fill:wheat; stroke: black;"/>24
  <text x="1452" y="553">PIPE ADIABATIC 5</text>
  <rect x="1700" y="540" width="200" height="20" style="fill:wheat; stroke: black;"/>25
  <text x="1702" y="553">PIPE ADIABATIC 3</text>
  <rect x="2200" y="540" width="200" height="20" style="fill:wheat; stroke: black;"/>26
  <text x="2202" y="553">PIPE ADIABATIC 2</text>
  <rect x="2200" y="620" width="200" height="20" style="fill:wheat; stroke: black;"/>27
  <text x="2202" y="633">HOT WATER LOOP DEMAND BYPASS PIPE</text>
  <rect x="2950" y="620" width="200" height="20" style="fill:wheat; stroke: black;"/>28
  <text x="2952" y="633">PIPE ADIABATIC 4</text>
  <rect x="2450" y="140" width="200" height="20" style="fill:wheat; stroke: black;"/>29
  <text x="2452" y="153">CHILLED WATER LOOP DEMAND SPLITTER</text>
  <rect x="3200" y="220" width="200" height="20" style="fill:wheat; stroke: black;"/>30
  <text x="3202" y="233">CHILLED WATER LOOP DEMAND MIXER</text>
  <rect x="950" y="100" width="200" height="20" style="fill:powderblue; stroke: black;"/>31
  <text x="952" y="113">CHILLER ELECTRIC EIR 1</text>
  <rect x="2450" y="340" width="200" height="20" style="fill:powderblue; stroke: black;"/>32
  <text x="2452" y="353">CHILLER ELECTRIC EIR 1</text>
  <rect x="450" y="100" width="200" height="20" style="fill:wheat; stroke: black;"/>33
  <text x="452" y="113">CHILLED WATER LOOP SUPPLY SPLITTER</text>
  <rect x="1450" y="140" width="200" height="20" style="fill:wheat; stroke: black;"/>34
  <text x="1452" y="153">CHILLED WATER LOOP SUPPLY MIXER</text>
  <rect x="2200" y="340" width="200" height="20" style="fill:wheat; stroke: black;"/>35
  <text x="2202" y="353">CONDENSER WATER LOOP DEMAND SPLITTER</text>
  <rect x="2950" y="420" width="200" height="20" style="fill:wheat; stroke: black;"/>36
  <text x="2952" y="433">CONDENSER WATER LOOP DEMAND MIXER</text>
  <rect x="700" y="300" width="200" height="20" style="fill:pink; stroke: black;"/>37
  <text x="702" y="313">COOLING TOWER SINGLE SPEED 1</text>
  <rect x="450" y="300" width="200" height="20" style="fill:wheat; stroke: black;"/>38
  <text x="452" y="313">CONDENSER WATER LOOP SUPPLY SPLITTER</text>
  <rect x="1450" y="340" width="200" height="20" style="fill:wheat; stroke: black;"/>39
  <text x="1452" y="353">CONDENSER WATER LOOP SUPPLY MIXER</text>
  <rect x="1950" y="540" width="200" height="20" style="fill:wheat; stroke: black;"/>40
  <text x="1952" y="553">HOT WATER LOOP DEMAND SPLITTER</text>
  <rect x="2700" y="620" width="200" height="20" style="fill:wheat; stroke: black;"/>41
  <text x="2702" y="633">HOT WATER LOOP DEMAND MIXER</text>
  <rect x="700" y="500" width="200" height="20" style="fill:indianred; stroke: black;"/>42
  <text x="702" y="513">BOILER HOT WATER 1</text>
  <rect x="450" y="500" width="200" height="20" style="fill:wheat; stroke: black;"/>43
  <text x="452" y="513">HOT WATER LOOP SUPPLY SPLITTER</text>
  <rect x="1200" y="540" width="200" height="20" style="fill:wheat; stroke: black;"/>44
  <text x="1202" y="553">HOT WATER LOOP SUPPLY MIXER</text>
  <rect x="4700" y="500" width="200" height="20" style="fill:wheat; stroke: black;"/>45
  <text x="4702" y="513">AIR LOOP HVAC ZONE SPLITTER 1</text>
  <rect x="200" y="20" width="200" height="20" style="fill:silver; stroke: black;"/>46
  <text x="202" y="33">PARALLEL PIU ELEC RHT FAN</text>
  <rect x="4200" y="500" width="200" height="20" style="fill:silver; stroke: black;"/>47
  <text x="4202" y="513">FAN VARIABLE VOLUME 1</text>
  <rect x="950" y="500" width="200" height="20" style="fill:wheat; stroke: black;"/>48
  <text x="952" y="513">PARALLEL PIU ELEC RHT MIXER</text>
  <rect x="2450" y="500" width="200" height="20" style="fill:wheat; stroke: black;"/>49
  <text x="2452" y="513">AIR LOOP HVAC ZONE MIXER 1</text>
  <rect x="1450" y="500" width="200" height="20" style="fill:salmon; stroke: black;"/>50
  <text x="1452" y="513">PARALLEL PIU ELEC RHT COIL</text>
  <rect x="3200" y="500" width="200" height="20" style="fill:lawngreen; stroke: black;"/>51
  <text  x="3202" y="508">AIR LOOP HVAC OUTDOOR AIR SYSTEM 1
  <tspan x="3202" y="516">OUTDOOR AIR MIXER</tspan></text>
  <rect x="2200" y="580" width="200" height="20" style="fill:salmon; stroke: black;"/>52
  <text x="2202" y="593">COIL HEATING WATER 1</text>
  <rect x="3950" y="500" width="200" height="20" style="fill:salmon; stroke: black;"/>53
  <text x="3952" y="513">COIL HEATING WATER 1</text>
  <rect x="2700" y="140" width="200" height="20" style="fill:skyblue; stroke: black;"/>54
  <text x="2702" y="153">COIL COOLING WATER 1</text>
  <rect x="3700" y="500" width="200" height="20" style="fill:skyblue; stroke: black;"/>55
  <text x="3702" y="513">COIL COOLING WATER 1</text>
  <rect x="200" y="100" width="200" height="20" style="fill:springgreen; stroke: black;"/>59
  <text x="202" y="113">PUMP VARIABLE SPEED 2</text>
  <rect x="200" y="300" width="200" height="20" style="fill:springgreen; stroke: black;"/>60
  <text x="202" y="313">PUMP VARIABLE SPEED 3</text>
  <rect x="200" y="500" width="200" height="20" style="fill:springgreen; stroke: black;"/>61
  <text x="202" y="513">PUMP VARIABLE SPEED 1</text>
  <line x1="400" y1="710" x2="400" y2="710" style="stroke:black;"/>
  <line x1="400" y1="710" x2="400" y2="710" style="stroke:black;"/>
  <line x1="400" y1="710" x2="3200" y2="510" style="stroke:black;"/>
  <line x1="1150" y1="150" x2="1150" y2="150" style="stroke:black;"/>
  <line x1="1150" y1="150" x2="1150" y2="150" style="stroke:black;"/>
  <line x1="1150" y1="150" x2="1450" y2="150" style="stroke:black;"/>
  <line x1="1900" y1="150" x2="1950" y2="150" style="stroke:black;"/>
  <line x1="2150" y1="150" x2="2150" y2="150" style="stroke:black;"/>
  <line x1="2150" y1="150" x2="2150" y2="150" style="stroke:black;"/>
  <line x1="2150" y1="150" x2="2450" y2="150" style="stroke:black;"/>
  <line x1="2900" y1="190" x2="2950" y2="210" style="stroke:black;"/>
  <line x1="2950" y1="210" x2="3150" y2="210" style="stroke:black;"/>
  <line x1="3150" y1="210" x2="3200" y2="230" style="stroke:black;"/>
  <line x1="2900" y1="230" x2="2900" y2="230" style="stroke:black;"/>
  <line x1="2900" y1="230" x2="2900" y2="230" style="stroke:black;"/>
  <line x1="2900" y1="230" x2="3200" y2="230" style="stroke:black;"/>
  <line x1="900" y1="350" x2="900" y2="350" style="stroke:black;"/>
  <line x1="900" y1="350" x2="900" y2="350" style="stroke:black;"/>
  <line x1="900" y1="350" x2="1450" y2="350" style="stroke:black;"/>
  <line x1="1900" y1="350" x2="1950" y2="350" style="stroke:black;"/>
  <line x1="2150" y1="350" x2="2200" y2="350" style="stroke:black;"/>
  <line x1="2650" y1="390" x2="2700" y2="410" style="stroke:black;"/>
  <line x1="2700" y1="410" x2="2900" y2="410" style="stroke:black;"/>
  <line x1="2900" y1="410" x2="2950" y2="430" style="stroke:black;"/>
  <line x1="2650" y1="430" x2="2650" y2="430" style="stroke:black;"/>
  <line x1="2650" y1="430" x2="2650" y2="430" style="stroke:black;"/>
  <line x1="2650" y1="430" x2="2950" y2="430" style="stroke:black;"/>
  <line x1="900" y1="550" x2="900" y2="550" style="stroke:black;"/>
  <line x1="900" y1="550" x2="900" y2="550" style="stroke:black;"/>
  <line x1="900" y1="550" x2="1200" y2="550" style="stroke:black;"/>
  <line x1="1650" y1="550" x2="1700" y2="550" style="stroke:black;"/>
  <line x1="1900" y1="550" x2="1950" y2="550" style="stroke:black;"/>
  <line x1="2400" y1="550" x2="2450" y2="570" style="stroke:black;"/>
  <line x1="2450" y1="570" x2="2650" y2="570" style="stroke:black;"/>
  <line x1="2650" y1="570" x2="2700" y2="630" style="stroke:black;"/>
  <line x1="2400" y1="630" x2="2400" y2="630" style="stroke:black;"/>
  <line x1="2400" y1="630" x2="2400" y2="630" style="stroke:black;"/>
  <line x1="2400" y1="630" x2="2700" y2="630" style="stroke:black;"/>
  <line x1="2650" y1="150" x2="2700" y2="150" style="stroke:black;"/>
  <line x1="2650" y1="150" x2="2700" y2="190" style="stroke:black;"/>
  <line x1="2650" y1="150" x2="2700" y2="230" style="stroke:black;"/>
  <line x1="3400" y1="230" x2="3450" y2="230" style="stroke:black;"/>
  <line x1="1150" y1="110" x2="1200" y2="130" style="stroke:black;"/>
  <line x1="1200" y1="130" x2="1400" y2="130" style="stroke:black;"/>
  <line x1="1400" y1="130" x2="1450" y2="150" style="stroke:black;"/>
  <line x1="2650" y1="350" x2="2700" y2="370" style="stroke:black;"/>
  <line x1="2700" y1="370" x2="2900" y2="370" style="stroke:black;"/>
  <line x1="2900" y1="370" x2="2950" y2="430" style="stroke:black;"/>
  <line x1="650" y1="110" x2="650" y2="110" style="stroke:black;"/>
  <line x1="650" y1="110" x2="650" y2="110" style="stroke:black;"/>
  <line x1="650" y1="110" x2="950" y2="110" style="stroke:black;"/>
  <line x1="650" y1="110" x2="700" y2="130" style="stroke:black;"/>
  <line x1="700" y1="130" x2="900" y2="130" style="stroke:black;"/>
  <line x1="900" y1="130" x2="950" y2="150" style="stroke:black;"/>
  <line x1="1650" y1="150" x2="1700" y2="150" style="stroke:black;"/>
  <line x1="2400" y1="350" x2="2450" y2="350" style="stroke:black;"/>
  <line x1="2400" y1="350" x2="2450" y2="390" style="stroke:black;"/>
  <line x1="2400" y1="350" x2="2450" y2="430" style="stroke:black;"/>
  <line x1="3150" y1="430" x2="3200" y2="430" style="stroke:black;"/>
  <line x1="900" y1="310" x2="950" y2="330" style="stroke:black;"/>
  <line x1="950" y1="330" x2="1400" y2="330" style="stroke:black;"/>
  <line x1="1400" y1="330" x2="1450" y2="350" style="stroke:black;"/>
  <line x1="650" y1="310" x2="700" y2="310" style="stroke:black;"/>
  <line x1="650" y1="310" x2="700" y2="350" style="stroke:black;"/>
  <line x1="1650" y1="350" x2="1700" y2="350" style="stroke:black;"/>
  <line x1="2150" y1="550" x2="2200" y2="550" style="stroke:black;"/>
  <line x1="2150" y1="550" x2="2200" y2="590" style="stroke:black;"/>
  <line x1="2150" y1="550" x2="2200" y2="630" style="stroke:black;"/>
  <line x1="2900" y1="630" x2="2950" y2="630" style="stroke:black;"/>
  <line x1="900" y1="510" x2="950" y2="530" style="stroke:black;"/>
  <line x1="950" y1="530" x2="1150" y2="530" style="stroke:black;"/>
  <line x1="1150" y1="530" x2="1200" y2="550" style="stroke:black;"/>
  <line x1="650" y1="510" x2="700" y2="510" style="stroke:black;"/>
  <line x1="650" y1="510" x2="700" y2="550" style="stroke:black;"/>
  <line x1="1400" y1="550" x2="1450" y2="550" style="stroke:black;"/>
  <line x1="4900" y1="510" x2="950" y2="510" style="stroke:black;"/>
  <line x1="400" y1="30" x2="450" y2="50" style="stroke:black;"/>
  <line x1="450" y1="50" x2="900" y2="50" style="stroke:black;"/>
  <line x1="900" y1="50" x2="950" y2="510" style="stroke:black;"/>
  <line x1="4400" y1="510" x2="4400" y2="510" style="stroke:black;"/>
  <line x1="4400" y1="510" x2="4400" y2="510" style="stroke:black;"/>
  <line x1="4400" y1="510" x2="4700" y2="510" style="stroke:black;"/>
  <line x1="1150" y1="510" x2="1150" y2="510" style="stroke:black;"/>
  <line x1="1150" y1="510" x2="1150" y2="510" style="stroke:black;"/>
  <line x1="1150" y1="510" x2="1450" y2="510" style="stroke:black;"/>
  <line x1="2650" y1="510" x2="2650" y2="510" style="stroke:black;"/>
  <line x1="2650" y1="510" x2="2650" y2="510" style="stroke:black;"/>
  <line x1="2650" y1="510" x2="3200" y2="510" style="stroke:black;"/>
  <line x1="1650" y1="510" x2="1650" y2="510" style="stroke:black;"/>
  <line x1="1650" y1="510" x2="1650" y2="510" style="stroke:black;"/>
  <line x1="1650" y1="510" x2="1950" y2="510" style="stroke:black;"/>
  <line x1="3400" y1="510" x2="3400" y2="510" style="stroke:black;"/>
  <line x1="3400" y1="510" x2="3400" y2="510" style="stroke:black;"/>
  <line x1="3400" y1="510" x2="3700" y2="510" style="stroke:black;"/>
  <line x1="2400" y1="590" x2="2450" y2="610" style="stroke:black;"/>
  <line x1="2450" y1="610" x2="2650" y2="610" style="stroke:black;"/>
  <line x1="2650" y1="610" x2="2700" y2="630" style="stroke:black;"/>
  <line x1="4150" y1="510" x2="4200" y2="510" style="stroke:black;"/>
  <line x1="2900" y1="150" x2="2950" y2="170" style="stroke:black;"/>
  <line x1="2950" y1="170" x2="3150" y2="170" style="stroke:black;"/>
  <line x1="3150" y1="170" x2="3200" y2="230" style="stroke:black;"/>
  <line x1="3900" y1="510" x2="3950" y2="510" style="stroke:black;"/>
  <line x1="400" y1="110" x2="450" y2="110" style="stroke:black;"/>
  <line x1="400" y1="310" x2="450" y2="310" style="stroke:black;"/>
  <line x1="400" y1="510" x2="450" y2="510" style="stroke:black;"/>
  <line x1="2150" y1="510" x2="2150" y2="510" style="stroke:black;"/>
  <line x1="2150" y1="510" x2="2150" y2="510" style="stroke:black;"/>
  <line x1="2150" y1="510" x2="2450" y2="510" style="stroke:black;"/>
  <line x1="200" y1="110" x2="175" y2="110" style="stroke:black;"/>
  <line x1="175" y1="110" x2="175" y2="80" style="stroke:black;"/>
  <line x1="175" y1="80" x2="3675" y2="80" style="stroke:black;"/>
  <line x1="3675" y1="80" x2="3675" y2="230" style="stroke:black;"/>
  <line x1="3675" y1="230" x2="3650" y2="230" style="stroke:black;"/>
  <line x1="200" y1="310" x2="175" y2="310" style="stroke:black;"/>
  <line x1="175" y1="310" x2="175" y2="280" style="stroke:black;"/>
  <line x1="175" y1="280" x2="3425" y2="280" style="stroke:black;"/>
  <line x1="3425" y1="280" x2="3425" y2="430" style="stroke:black;"/>
  <line x1="3425" y1="430" x2="3400" y2="430" style="stroke:black;"/>
  <line x1="200" y1="510" x2="175" y2="510" style="stroke:black;"/>
  <line x1="175" y1="510" x2="175" y2="480" style="stroke:black;"/>
  <line x1="175" y1="480" x2="3175" y2="480" style="stroke:black;"/>
  <line x1="3175" y1="480" x2="3175" y2="630" style="stroke:black;"/>
  <line x1="3175" y1="630" x2="3150" y2="630" style="stroke:black;"/>
  <text x="200" y="760">Unused Non-Parent Objects:</text>
  <text x="220" y="780">OutdoorAir:Node</text>
  <text x="220" y="800">SETPOINT MANAGER SCHEDULED 1</text>
  <text x="220" y="820">SETPOINT MANAGER SCHEDULED 3</text>
  <text x="220" y="840">SETPOINT MANAGER SCHEDULED 2</text>
  <text x="220" y="860">NODE 9 OS DEFAULT SPM</text>
  <text x="220" y="880">NODE 10 OS DEFAULT SPM</text>
  <text x="220" y="900">NODE 11 OS DEFAULT SPM</text>
  <text x="220" y="920">SETPOINT MANAGER FOLLOW OUTDOOR AIR TEMPERATURE 1</text>
  <text x="220" y="940">CONTROLLER WATER COIL 2</text>
  <text x="220" y="960">CONTROLLER WATER COIL 1</text>
  <text x="220" y="980">CONTROLLER OUTDOOR AIR 1</text>
  <text x="200" y="1020">
The following are not supported: objects related to controls or ZoneHVAC:IdealLoadsAirSystem</text>
</g>
</svg>
